<svg width="23" height="30" viewBox="0 0 23 30" fill="none" xmlns="http://www.w3.org/2000/svg">
<path d="M22.1331 11.0626C22.1324 9.30512 21.7133 7.57309 20.9102 6.00984C20.1072 4.44659 18.9434 3.09707 17.5151 2.07299C16.0869 1.04891 14.4353 0.379704 12.697 0.120773C10.9587 -0.138159 9.1838 0.0206268 7.51909 0.583987C5.85438 1.14735 4.34779 2.09908 3.124 3.36042C1.90021 4.62175 0.994421 6.15641 0.481606 7.83738C-0.031208 9.51834 -0.136302 11.2973 0.175022 13.0269C0.486347 14.7566 1.20514 16.3872 2.2719 17.7839L10.097 28.9886H2.68016C2.54604 28.9886 2.41742 29.0419 2.32258 29.1367C2.22775 29.2316 2.17447 29.3602 2.17447 29.4943C2.17447 29.6284 2.22775 29.7571 2.32258 29.8519C2.41742 29.9467 2.54604 30 2.68016 30H19.4532C19.5874 30 19.716 29.9467 19.8108 29.8519C19.9057 29.7571 19.9589 29.6284 19.9589 29.4943C19.9589 29.3602 19.9057 29.2316 19.8108 29.1367C19.716 29.0419 19.5874 28.9886 19.4532 28.9886H12.0364L19.8487 17.8011C21.3347 15.8695 22.1381 13.4996 22.1331 11.0626ZM11.0665 28.611L3.08842 17.1892C1.94591 15.6994 1.24331 13.9196 1.06017 12.0511C0.877033 10.1827 1.22067 8.30024 2.05217 6.61701C2.88367 4.93377 4.16983 3.51696 5.76501 2.52698C7.36019 1.53699 9.20068 1.01339 11.0781 1.01546C12.9555 1.01752 14.7948 1.54517 16.3878 2.53866C17.9808 3.53214 19.2639 4.95178 20.0917 6.63684C20.9195 8.3219 21.259 10.2051 21.0717 12.0731C20.8845 13.9412 20.1779 15.7195 19.0322 17.2067L11.0665 28.611Z" fill="#01396C"/>
</svg>
