<?xml version="1.0" encoding="UTF-8"?>
<svg xmlns="http://www.w3.org/2000/svg" width="42" height="42" viewBox="0 0 42 42" fill="none">
  <path d="M38.4155 36.839L39.269 37.6925V36.4854V29.0934C39.269 28.7976 39.3865 28.5139 39.5957 28.3047C39.8049 28.0956 40.0886 27.9781 40.3844 27.9781C40.6802 27.9781 40.9639 28.0956 41.1731 28.3047C41.3823 28.5139 41.4998 28.7976 41.4998 29.0934V40.385C41.4998 40.6808 41.3823 40.9645 41.1731 41.1737C40.9639 41.3828 40.6802 41.5004 40.3844 41.5004H29.0767C28.7809 41.5004 28.4972 41.3828 28.288 41.1737C28.0788 40.9645 27.9613 40.6808 27.9613 40.385C27.9613 40.0892 28.0788 39.8055 28.288 39.5963C28.4972 39.3871 28.7809 39.2696 29.0767 39.2696H36.4849H37.692L36.8384 38.416L25.0608 26.6384C24.8593 26.4283 24.7479 26.1478 24.7504 25.8567C24.753 25.5642 24.8703 25.2845 25.0771 25.0777C25.2839 24.8709 25.5636 24.7536 25.8561 24.751C26.1472 24.7485 26.4278 24.8599 26.6378 25.0613L38.4155 36.839Z" fill="#01396C" stroke="white"></path>
  <path d="M36.8385 3.58432L37.6921 2.73077H36.485H29.0768C28.781 2.73077 28.4973 2.61326 28.2881 2.40408C28.079 2.19491 27.9614 1.9112 27.9614 1.61538C27.9614 1.31957 28.079 1.03586 28.2881 0.826689C28.4973 0.617514 28.781 0.5 29.0768 0.5H40.3845C40.6803 0.5 40.964 0.617514 41.1732 0.826688C41.3824 1.03586 41.4999 1.31957 41.4999 1.61538V12.9069C41.4999 13.2027 41.3824 13.4864 41.1732 13.6956C40.964 13.9048 40.6803 14.0223 40.3845 14.0223C40.0887 14.0223 39.805 13.9048 39.5958 13.6956C39.3866 13.4864 39.2691 13.2027 39.2691 12.9069V5.51492V4.30782L38.4156 5.16137L26.6346 16.9424L26.6345 16.9423L26.6285 16.9486C26.5256 17.0551 26.4025 17.1401 26.2664 17.1985C26.1304 17.257 25.984 17.2878 25.8359 17.289C25.6878 17.2903 25.5409 17.2621 25.4039 17.206C25.2668 17.1499 25.1422 17.0671 25.0375 16.9624C24.9328 16.8577 24.85 16.7331 24.7939 16.5961C24.7378 16.459 24.7096 16.3121 24.7109 16.164C24.7122 16.0159 24.7429 15.8695 24.8014 15.7335C24.8598 15.5974 24.9448 15.4743 25.0513 15.3714L25.0514 15.3715L25.0575 15.3653L36.8385 3.58432Z" fill="#01396C" stroke="white"></path>
  <path d="M2.73069 36.4854V37.6925L3.58424 36.839L15.3619 25.0613C15.5719 24.8599 15.8525 24.7485 16.1436 24.751C16.4361 24.7536 16.7158 24.8709 16.9226 25.0777C17.1294 25.2845 17.2467 25.5642 17.2493 25.8567C17.2518 26.1478 17.1404 26.4283 16.9389 26.6384L5.16129 38.416L4.30773 39.2696H5.51484H12.8745C13.1704 39.2696 13.4541 39.3871 13.6632 39.5963C13.8724 39.8055 13.9899 40.0892 13.9899 40.385C13.9899 40.6808 13.8724 40.9645 13.6632 41.1737C13.4541 41.3828 13.1704 41.5004 12.8745 41.5004H1.6153C1.31948 41.5004 1.03578 41.3828 0.826605 41.1737C0.61743 40.9645 0.499916 40.6808 0.499916 40.385V29.0934C0.499916 28.7976 0.61743 28.5139 0.826605 28.3047C1.03578 28.0956 1.31948 27.9781 1.6153 27.9781C1.91112 27.9781 2.19482 28.0956 2.404 28.3047C2.61317 28.5139 2.73069 28.7976 2.73069 29.0934V36.4854Z" fill="#01396C" stroke="white"></path>
  <path d="M5.51484 2.73077H4.30773L5.16129 3.58432L16.939 15.362C17.1404 15.572 17.2518 15.8526 17.2493 16.1437C17.2467 16.4361 17.1294 16.7159 16.9226 16.9227C16.7158 17.1295 16.4361 17.2468 16.1436 17.2493C15.8525 17.2519 15.572 17.1405 15.3619 16.939L3.58424 5.16137L2.73069 4.30782V5.51492V12.9069C2.73069 13.2027 2.61317 13.4864 2.404 13.6956C2.19482 13.9048 1.91112 14.0223 1.6153 14.0223C1.31948 14.0223 1.03578 13.9048 0.826605 13.6956C0.617429 13.4864 0.499916 13.2027 0.499916 12.9069V1.61538C0.499916 1.31957 0.617429 1.03586 0.826605 0.826689C1.03578 0.617513 1.31948 0.5 1.6153 0.5H12.8745C13.1704 0.5 13.4541 0.617513 13.6632 0.826688C13.8724 1.03586 13.9899 1.31957 13.9899 1.61538C13.9899 1.9112 13.8724 2.19491 13.6632 2.40408C13.4541 2.61326 13.1704 2.73077 12.8745 2.73077H5.51484Z" fill="#01396C" stroke="white"></path>
</svg>
