<?xml version="1.0" encoding="UTF-8"?>
<svg xmlns="http://www.w3.org/2000/svg" width="70" height="70" viewBox="0 0 70 70" fill="none">
  <circle cx="35" cy="35" r="34.5" fill="white" stroke="#E8EEF3"></circle>
  <path d="M35.0666 25.1766C33.9024 25.1766 32.7645 25.5218 31.7965 26.1686C30.8286 26.8153 30.0742 27.7346 29.6287 28.8101C29.1832 29.8856 29.0667 31.0691 29.2938 32.2108C29.5209 33.3526 30.0814 34.4013 30.9046 35.2245C31.7278 36.0477 32.7765 36.6082 33.9183 36.8353C35.06 37.0625 36.2435 36.9459 37.319 36.5004C38.3945 36.0549 39.3138 35.3005 39.9605 34.3326C40.6073 33.3646 40.9525 32.2267 40.9525 31.0625C40.9508 29.502 40.3301 28.0059 39.2267 26.9024C38.1232 25.799 36.6271 25.1783 35.0666 25.1766ZM35.0666 35.9367C34.1025 35.9367 33.16 35.6508 32.3584 35.1152C31.5568 34.5796 30.932 33.8182 30.5631 32.9275C30.1941 32.0368 30.0976 31.0567 30.2857 30.1111C30.4738 29.1655 30.9381 28.297 31.6199 27.6153C32.3016 26.9336 33.1702 26.4693 34.1158 26.2813C35.0614 26.0933 36.0415 26.1898 36.9322 26.5588C37.8229 26.9278 38.5842 27.5527 39.1197 28.3543C39.6553 29.156 39.9412 30.0984 39.9411 31.0625C39.9397 32.3549 39.4256 33.5939 38.5118 34.5076C37.5979 35.4214 36.3589 35.9354 35.0666 35.9367Z" fill="#01396C"></path>
  <path d="M46.1331 31.0626C46.1324 29.3051 45.7133 27.5731 44.9102 26.0098C44.1072 24.4466 42.9434 23.0971 41.5151 22.073C40.0869 21.0489 38.4353 20.3797 36.697 20.1208C34.9587 19.8618 33.1838 20.0206 31.5191 20.584C29.8544 21.1473 28.3478 22.0991 27.124 23.3604C25.9002 24.6217 24.9944 26.1564 24.4816 27.8374C23.9688 29.5183 23.8637 31.2973 24.175 33.0269C24.4863 34.7566 25.2051 36.3872 26.2719 37.7839L34.097 48.9886H26.6802C26.546 48.9886 26.4174 49.0419 26.3226 49.1367C26.2277 49.2316 26.1745 49.3602 26.1745 49.4943C26.1745 49.6284 26.2277 49.7571 26.3226 49.8519C26.4174 49.9467 26.546 50 26.6802 50H43.4532C43.5874 50 43.716 49.9467 43.8108 49.8519C43.9057 49.7571 43.9589 49.6284 43.9589 49.4943C43.9589 49.3602 43.9057 49.2316 43.8108 49.1367C43.716 49.0419 43.5874 48.9886 43.4532 48.9886H36.0364L43.8487 37.8011C45.3347 35.8695 46.1381 33.4996 46.1331 31.0626ZM35.0665 48.611L27.0884 37.1892C25.9459 35.6994 25.2433 33.9196 25.0602 32.0511C24.877 30.1827 25.2207 28.3002 26.0522 26.617C26.8837 24.9338 28.1698 23.517 29.765 22.527C31.3602 21.537 33.2007 21.0134 35.0781 21.0155C36.9555 21.0175 38.7948 21.5452 40.3878 22.5387C41.9808 23.5321 43.2639 24.9518 44.0917 26.6368C44.9195 28.3219 45.259 30.2051 45.0717 32.0731C44.8845 33.9412 44.1779 35.7195 43.0322 37.2067L35.0665 48.611Z" fill="#01396C"></path>
</svg>
