<?xml version="1.0" encoding="UTF-8"?>
<svg xmlns="http://www.w3.org/2000/svg" width="50" height="48" viewBox="0 0 50 48" fill="none">
  <path d="M24.9999 37.3615C27.343 37.3615 29.6448 36.745 31.6741 35.5739C33.7035 34.4027 35.3889 32.7182 36.5612 30.6894C37.7334 28.6607 38.3511 26.3592 38.3524 24.0162C38.3536 21.6731 37.7382 19.371 36.5681 17.3411C36.5613 17.3286 36.5533 17.3161 36.5454 17.3036C36.4317 17.1007 36.3181 16.9183 36.2045 16.7484C33.8454 12.9575 30.5794 8.53765 30.5613 8.50981C26.9567 3.31663 25.805 0.555266 25.7937 0.52913C25.7295 0.37264 25.6203 0.238764 25.4799 0.144539C25.3394 0.0503142 25.1741 0 25.005 0C24.8359 0 24.6706 0.0503142 24.5302 0.144539C24.3897 0.238764 24.2805 0.37264 24.2164 0.52913C24.2056 0.556403 23.0522 3.31663 19.4635 8.48936C19.4289 8.53595 16.1607 12.9604 13.8016 16.7524C13.6846 16.9229 13.5743 17.1047 13.4607 17.3092C13.4539 17.3189 13.4476 17.3297 13.4414 17.3399C12.2725 19.3694 11.6578 21.6705 11.6589 24.0125C11.6601 26.3545 12.2771 28.655 13.448 30.6833C14.6189 32.7115 16.3026 34.3963 18.3302 35.5684C20.3578 36.7406 22.6579 37.3589 24.9999 37.3615ZM14.8954 18.2269L14.9027 18.2149L15.2562 17.6433C15.2652 17.6286 15.2743 17.6132 15.2823 17.5979C17.6005 13.8803 20.7988 9.54902 20.8471 9.48311C22.3632 7.33826 23.751 5.10557 25.0033 2.79674C26.2601 5.11285 27.6529 7.35256 29.1743 9.50413C29.2079 9.55015 32.4096 13.8842 34.7272 17.6036L34.7499 17.6433L35.1027 18.2144L35.1158 18.2342C36.126 20.0057 36.6536 22.0114 36.6457 24.0506C36.6379 26.0899 36.0949 28.0914 35.0711 29.8551C34.0473 31.6188 32.5786 33.0828 30.8116 34.101C29.0447 35.1191 27.0415 35.6557 25.0022 35.657C22.962 35.6562 20.9578 35.1196 19.1902 34.1009C17.4225 33.0821 15.9535 31.6169 14.9301 29.852C13.9067 28.087 13.3648 26.0842 13.3587 24.0441C13.3526 22.0039 13.8825 19.9979 14.8954 18.2269Z" fill="#01396C"></path>
  <path d="M27.8305 31.4401C27.9692 31.44 28.1058 31.4059 28.2282 31.3407C29.5858 30.6249 30.722 29.5517 31.5139 28.237C32.3058 26.9224 32.7233 25.4163 32.7214 23.8816C32.7214 23.6555 32.6316 23.4388 32.4718 23.2789C32.312 23.1191 32.0952 23.0293 31.8691 23.0293C31.6431 23.0293 31.4263 23.1191 31.2665 23.2789C31.1067 23.4388 31.0169 23.6555 31.0169 23.8816C31.0182 25.1063 30.6849 26.308 30.0529 27.3571C29.421 28.4061 28.5144 29.2625 27.4311 29.8338C27.2629 29.9228 27.1293 30.0655 27.0516 30.2391C26.9739 30.4128 26.9565 30.6075 27.0022 30.7922C27.048 30.9769 27.1542 31.1409 27.304 31.2582C27.4538 31.3756 27.6385 31.4394 27.8288 31.4395L27.8305 31.4401Z" fill="#01396C"></path>
  <path d="M25.4283 43.1299C33.4295 43.1299 41.5289 41.2009 41.5289 37.5134C41.5289 36.1844 40.4897 35.027 38.4403 34.0719C38.3388 34.0246 38.229 33.9978 38.1172 33.993C38.0053 33.9881 37.8936 34.0054 37.7884 34.0437C37.6833 34.082 37.5867 34.1407 37.5042 34.2164C37.4217 34.292 37.3549 34.3832 37.3076 34.4847C37.2603 34.5862 37.2335 34.696 37.2287 34.8078C37.2238 34.9196 37.2411 35.0313 37.2794 35.1365C37.3177 35.2417 37.3764 35.3383 37.4521 35.4208C37.5277 35.5033 37.6189 35.5701 37.7204 35.6174C39.038 36.231 39.8227 36.9401 39.8227 37.5134C39.8227 39.1083 34.2147 41.4253 25.4266 41.4253C16.6386 41.4253 11.03 39.1083 11.03 37.5134C11.03 37.0361 11.584 36.4554 12.5494 35.9191C12.747 35.8093 12.8929 35.6255 12.955 35.4081C13.0172 35.1908 12.9904 34.9576 12.8806 34.76C12.7708 34.5623 12.587 34.4164 12.3697 34.3543C12.1523 34.2922 11.9192 34.3189 11.7215 34.4287C10.1306 35.3122 9.3255 36.3497 9.3255 37.5134C9.32721 41.2009 17.4272 43.1299 25.4283 43.1299Z" fill="#01396C"></path>
  <path d="M41.2766 29.3227C41.1707 29.2827 41.0579 29.2641 40.9448 29.2681C40.8316 29.2721 40.7204 29.2986 40.6177 29.3461C40.5149 29.3936 40.4226 29.461 40.3462 29.5446C40.2697 29.6281 40.2107 29.726 40.1726 29.8326C40.1344 29.9392 40.1179 30.0523 40.1239 30.1653C40.13 30.2784 40.1585 30.3891 40.2078 30.491C40.2571 30.5929 40.3262 30.684 40.4111 30.7589C40.496 30.8338 40.5949 30.891 40.7022 30.9273C45.5277 32.654 48.2954 35.0347 48.2954 37.4563C48.2954 41.0511 42.0908 44.4875 33.2062 45.8125C32.9931 45.8439 32.7998 45.9547 32.6652 46.1228C32.5305 46.2908 32.4645 46.5036 32.4803 46.7184C32.4962 46.9331 32.5927 47.1339 32.7505 47.2804C32.9084 47.4269 33.1158 47.5082 33.3312 47.508C33.3738 47.5078 33.4163 47.5046 33.4584 47.4983C43.5067 45.9994 49.9999 42.058 49.9999 37.4563C49.9999 34.2256 46.9022 31.3358 41.2766 29.3227Z" fill="#01396C"></path>
  <path d="M16.5482 47.498C16.5904 47.5043 16.6329 47.5075 16.6755 47.5077C16.8908 47.5077 17.0981 47.4263 17.2559 47.2798C17.4136 47.1333 17.51 46.9325 17.5258 46.7178C17.5415 46.5031 17.4755 46.2904 17.3408 46.1224C17.2062 45.9544 17.0129 45.8436 16.7999 45.8122C7.91187 44.4866 1.70448 41.0503 1.70448 37.456C1.70448 35.0293 4.47437 32.6463 9.30392 30.9173C9.51457 30.8395 9.68598 30.6816 9.7809 30.4781C9.87581 30.2746 9.88656 30.0418 9.81079 29.8304C9.73503 29.619 9.57889 29.446 9.37631 29.3491C9.17372 29.2522 8.94107 29.2391 8.72892 29.3128C3.09994 31.3281 -6.10352e-05 34.2196 -6.10352e-05 37.456C-6.10352e-05 42.0565 6.49596 45.9986 16.5482 47.498Z" fill="#01396C"></path>
</svg>
