<?xml version="1.0" encoding="UTF-8"?>
<svg xmlns="http://www.w3.org/2000/svg" width="80" height="78" viewBox="0 0 80 78" fill="none">
  <path d="M79.477 75.3156C79.135 75.1296 70.949 70.7407 57.0811 68.5047C44.3122 66.4467 24.1543 65.9487 0.632374 75.2646C0.118376 75.4676 -0.132622 76.0486 0.0703771 76.5626C0.225376 76.9556 0.602374 77.1946 1.00037 77.1946C1.12337 77.1946 1.24737 77.1726 1.36837 77.1246C45.4972 59.6477 78.197 76.8966 78.522 77.0736C79.009 77.3366 79.614 77.1576 79.878 76.6716C80.141 76.1866 79.963 75.5796 79.477 75.3156Z" fill="#01396C"></path>
  <path d="M50.0221 21.5998C50.0221 16.0739 45.5261 11.5779 40.0001 11.5779C34.4732 11.5779 29.9772 16.0739 29.9772 21.5998C29.9772 27.1268 34.4732 31.6228 40.0001 31.6228C45.5261 31.6228 50.0221 27.1268 50.0221 21.5998ZM40.0001 29.6228C35.5761 29.6228 31.9772 26.0228 31.9772 21.5998C31.9772 17.1769 35.5771 13.5779 40.0001 13.5779C44.4231 13.5779 48.0221 17.1769 48.0221 21.5998C48.0221 26.0228 44.4241 29.6228 40.0001 29.6228Z" fill="#01396C"></path>
  <path d="M41.0001 5.32397V0.999995C41.0001 0.446998 40.5531 0 40.0001 0C39.4471 0 39.0001 0.446998 39.0001 0.999995V5.32397C39.0001 5.87697 39.4471 6.32397 40.0001 6.32397C40.5531 6.32397 41.0001 5.87697 41.0001 5.32397Z" fill="#01396C"></path>
  <path d="M33.3812 7.73105C33.5172 7.73105 33.6542 7.70405 33.7872 7.64405C34.2912 7.41905 34.5182 6.82905 34.2932 6.32405L32.5342 2.37407C32.3102 1.87108 31.7232 1.64208 31.2142 1.86808C30.7102 2.09307 30.4842 2.68307 30.7082 3.18807L32.4672 7.13805C32.6322 7.51105 32.9972 7.73105 33.3812 7.73105Z" fill="#01396C"></path>
  <path d="M27.9043 11.7089C28.1773 11.7089 28.4503 11.5979 28.6473 11.3779C29.0162 10.9679 28.9832 10.3349 28.5732 9.96587L25.3603 7.07289C24.9503 6.70389 24.3173 6.73589 23.9483 7.14689C23.5793 7.55689 23.6123 8.18988 24.0223 8.55888L27.2353 11.4519C27.4263 11.6239 27.6663 11.7089 27.9043 11.7089Z" fill="#01396C"></path>
  <path d="M24.2122 17.5209C24.3152 17.5539 24.4182 17.5699 24.5212 17.5699C24.9432 17.5699 25.3342 17.3009 25.4722 16.8789C25.6432 16.3549 25.3552 15.7899 24.8292 15.6189L20.7182 14.2829C20.1952 14.1129 19.6292 14.3989 19.4582 14.9259C19.2872 15.4499 19.5752 16.0149 20.1012 16.1859L24.2122 17.5209Z" fill="#01396C"></path>
  <path d="M18.5193 23.8569C18.5733 24.3709 19.0063 24.7529 19.5123 24.7529C19.5473 24.7529 19.5823 24.7509 19.6173 24.7469L23.9173 24.2949C24.4673 24.2369 24.8653 23.7449 24.8073 23.1959C24.7493 22.6459 24.2493 22.2429 23.7083 22.3059L19.4083 22.7579C18.8593 22.8159 18.4613 23.3089 18.5193 23.8569Z" fill="#01396C"></path>
  <path d="M22.1612 32.8989C22.3312 32.8989 22.5032 32.8559 22.6602 32.7649L26.4052 30.6029C26.8842 30.3269 27.0482 29.7149 26.7712 29.2369C26.4942 28.7579 25.8802 28.5949 25.4052 28.8709L21.6602 31.0329C21.1812 31.3089 21.0172 31.9209 21.2942 32.3989C21.4792 32.7209 21.8152 32.8989 22.1612 32.8989Z" fill="#01396C"></path>
  <path d="M27.8902 39.2647C28.2002 39.2647 28.5042 39.1217 28.7002 38.8527L31.2422 35.3547C31.5672 34.9077 31.4682 34.2827 31.0212 33.9587C30.5732 33.6337 29.9482 33.7317 29.6252 34.1797L27.0832 37.6777C26.7582 38.1247 26.8572 38.7497 27.3042 39.0737C27.4812 39.2017 27.6862 39.2647 27.8902 39.2647Z" fill="#01396C"></path>
  <path d="M35.6372 37.3108L34.7382 41.5398C34.6242 42.0798 34.9682 42.6108 35.5092 42.7268C35.5792 42.7418 35.6492 42.7478 35.7182 42.7478C36.1802 42.7478 36.5952 42.4258 36.6962 41.9558L37.5952 37.7268C37.7092 37.1868 37.3652 36.6558 36.8242 36.5398C36.2852 36.4268 35.7532 36.7708 35.6372 37.3108Z" fill="#01396C"></path>
  <path d="M43.1762 36.541C42.6362 36.656 42.2912 37.1869 42.4052 37.7279L43.3042 41.9569C43.4052 42.4269 43.8202 42.7489 44.2822 42.7489C44.3512 42.7489 44.4212 42.7419 44.4912 42.7279C45.0312 42.6129 45.3762 42.0819 45.2622 41.5409L44.3632 37.3119C44.2462 36.7699 43.7142 36.426 43.1762 36.541Z" fill="#01396C"></path>
  <path d="M51.3002 38.8528C51.4952 39.1228 51.8002 39.2648 52.1102 39.2648C52.3142 39.2648 52.5192 39.2028 52.6972 39.0738C53.1432 38.7498 53.2432 38.1248 52.9182 37.6778L50.3762 34.1799C50.0522 33.7329 49.4262 33.6349 48.9802 33.9589C48.5342 34.2829 48.4342 34.9079 48.7592 35.3549L51.3002 38.8528Z" fill="#01396C"></path>
  <path d="M53.5941 30.6029L57.3391 32.7649C57.4961 32.8559 57.6681 32.8989 57.8381 32.8989C58.1841 32.8989 58.5201 32.7189 58.7051 32.3989C58.9811 31.9199 58.8171 31.3089 58.3391 31.0329L54.5941 28.8709C54.1161 28.5959 53.5041 28.7599 53.2281 29.2369C52.9521 29.7159 53.1161 30.3269 53.5941 30.6029Z" fill="#01396C"></path>
  <path d="M60.4871 24.7529C60.9931 24.7529 61.4261 24.3709 61.4801 23.8569C61.539 23.3079 61.1401 22.8159 60.5901 22.7579L56.2901 22.3059C55.7491 22.2439 55.2491 22.6459 55.1911 23.1959C55.1321 23.7449 55.5311 24.2369 56.0811 24.2949L60.3811 24.7469C60.4171 24.7509 60.4521 24.7529 60.4871 24.7529Z" fill="#01396C"></path>
  <path d="M54.5271 16.8788C54.6651 17.3018 55.0561 17.5698 55.4781 17.5698C55.5811 17.5698 55.6841 17.5538 55.7871 17.5208L59.8991 16.1848C60.4241 16.0138 60.7121 15.4498 60.5421 14.9248C60.3711 14.3988 59.8071 14.1118 59.2821 14.2818L55.1701 15.6178C54.6441 15.7898 54.3561 16.3538 54.5271 16.8788Z" fill="#01396C"></path>
  <path d="M56.0521 7.14702C55.6821 6.73503 55.0501 6.70303 54.6401 7.07302L51.4261 9.96601C51.0161 10.335 50.9831 10.968 51.3521 11.378C51.5491 11.598 51.8221 11.709 52.0951 11.709C52.3331 11.709 52.5731 11.624 52.7641 11.452L55.9781 8.55902C56.3871 8.19002 56.4211 7.55802 56.0521 7.14702Z" fill="#01396C"></path>
  <path d="M46.6192 7.73102C47.0022 7.73102 47.3682 7.51002 47.5332 7.13802L49.2922 3.18804C49.5172 2.68304 49.2902 2.09204 48.7862 1.86805C48.2792 1.64105 47.6892 1.87005 47.4662 2.37404L45.7072 6.32402C45.4812 6.82902 45.7092 7.42002 46.2132 7.64402C46.3452 7.70402 46.4832 7.73102 46.6192 7.73102Z" fill="#01396C"></path>
  <path d="M79 51.2147C78.447 51.2147 78 51.6617 78 52.2147C78 54.7357 75.949 56.7857 73.429 56.7857C70.909 56.7857 68.8581 54.7347 68.8581 52.2147C68.8581 51.6617 68.4111 51.2147 67.8581 51.2147C67.3051 51.2147 66.8581 51.6617 66.8581 52.2147C66.8581 54.7357 64.8071 56.7857 62.2861 56.7857C59.7651 56.7857 57.7151 54.7347 57.7151 52.2147C57.7151 51.6617 57.2681 51.2147 56.7151 51.2147C56.1621 51.2147 55.7151 51.6617 55.7151 52.2147C55.7151 54.7357 53.6641 56.7857 51.1441 56.7857C48.6242 56.7857 46.5732 54.7347 46.5732 52.2147C46.5732 51.6617 46.1262 51.2147 45.5732 51.2147C45.0202 51.2147 44.5732 51.6617 44.5732 52.2147C44.5732 54.7357 42.5222 56.7857 40.0022 56.7857C37.4822 56.7857 35.4312 54.7347 35.4312 52.2147C35.4312 51.6617 34.9842 51.2147 34.4312 51.2147C33.8782 51.2147 33.4312 51.6617 33.4312 52.2147C33.4312 54.7357 31.3802 56.7857 28.8603 56.7857C26.3393 56.7857 24.2883 54.7347 24.2883 52.2147C24.2883 51.6617 23.8413 51.2147 23.2883 51.2147C22.7353 51.2147 22.2883 51.6617 22.2883 52.2147C22.2883 54.7357 20.2373 56.7857 17.7173 56.7857C15.1973 56.7857 13.1463 54.7347 13.1463 52.2147C13.1463 51.6617 12.6993 51.2147 12.1463 51.2147C11.5933 51.2147 11.1463 51.6617 11.1463 52.2147C11.1463 54.7357 9.09535 56.7857 6.57536 56.7857C4.05537 56.7857 2.00438 54.7347 2.00438 52.2147C2.00438 51.6617 1.55739 51.2147 1.00439 51.2147C0.451392 51.2147 0.00439453 51.6617 0.00439453 52.2147C0.00439453 55.8377 2.95238 58.7857 6.57536 58.7857C8.92535 58.7857 10.9843 57.5417 12.1463 55.6817C13.3083 57.5417 15.3683 58.7857 17.7173 58.7857C20.0663 58.7857 22.1263 57.5417 23.2883 55.6817C24.4503 57.5417 26.5103 58.7857 28.8603 58.7857C31.2102 58.7857 33.2692 57.5417 34.4312 55.6817C35.5932 57.5417 37.6532 58.7857 40.0022 58.7857C42.3512 58.7857 44.4112 57.5417 45.5732 55.6817C46.7352 57.5417 48.7952 58.7857 51.1441 58.7857C53.4931 58.7857 55.5531 57.5417 56.7151 55.6817C57.8771 57.5417 59.9371 58.7857 62.2861 58.7857C64.6361 58.7857 66.6961 57.5417 67.8581 55.6817C69.0201 57.5417 71.08 58.7857 73.429 58.7857C77.052 58.7857 80 55.8377 80 52.2147C80 51.6617 79.552 51.2147 79 51.2147Z" fill="#01396C"></path>
</svg>
