<?xml version="1.0" encoding="UTF-8"?>
<svg xmlns="http://www.w3.org/2000/svg" width="75" height="80" viewBox="0 0 75 80" fill="none">
  <path d="M73.7651 73.2561C72.0018 73.2561 70.3476 72.3109 68.7662 71.402C67.312 70.5658 65.9305 69.7842 64.658 69.7842C63.3856 69.7842 62.0041 70.584 60.5499 71.402C58.9502 72.3109 57.2961 73.2561 55.551 73.2561C53.806 73.2561 52.1336 72.3109 50.5521 71.402C49.0979 70.5658 47.7164 69.7842 46.444 69.7842C45.1716 69.7842 43.7901 70.5658 42.3358 71.402C40.7362 72.3109 39.082 73.2561 37.337 73.2561C35.5919 73.2561 33.9196 72.3109 32.3381 71.402C30.8839 70.5658 29.5024 69.7842 28.2299 69.7842C26.9575 69.7842 25.576 70.5658 24.1218 71.402C22.5222 72.3109 20.868 73.2561 19.1229 73.2561C17.3597 73.2561 15.7055 72.3109 14.1241 71.402C12.6698 70.5658 11.2883 69.7842 10.0159 69.7842C8.74347 69.7842 7.36196 70.5658 5.90775 71.402C4.30811 72.3109 2.65394 73.2561 0.908884 73.2561C0.399909 73.2561 0 72.8562 0 72.3472V32.1382C0 27.1575 4.05362 23.0857 9.05249 23.0857H65.6578C70.6385 23.0857 74.7103 27.1393 74.7103 32.1382V72.3472C74.6739 72.8562 74.274 73.2561 73.7651 73.2561ZM46.444 67.9846C48.2072 67.9846 49.8614 68.9298 51.4429 69.8387C52.8971 70.6749 54.2786 71.4565 55.551 71.4565C56.8234 71.4565 58.205 70.6749 59.6592 69.8387C61.2588 68.9298 62.913 67.9846 64.658 67.9846C66.4031 67.9846 68.0754 68.9298 69.6569 69.8387C70.7657 70.4749 71.8382 71.0748 72.8562 71.3293V32.1382C72.8562 28.1573 69.6205 24.9035 65.6215 24.9035H9.03431C5.0534 24.9035 1.79959 28.1391 1.79959 32.1382V71.3111C2.81754 71.0566 3.87185 70.4567 4.99886 69.8205C6.5985 68.9116 8.25267 67.9664 9.99773 67.9664C11.7428 67.9664 13.4151 68.9116 14.9966 69.8205C16.4508 70.6567 17.8323 71.4383 19.1047 71.4383C20.3772 71.4383 21.7587 70.6567 23.2129 69.8205C24.8125 68.9116 26.4667 67.9664 28.2118 67.9664C29.9568 67.9664 31.6292 68.9116 33.2106 69.8205C34.6649 70.6567 36.0464 71.4383 37.3188 71.4383C38.5912 71.4383 39.9727 70.6567 41.4269 69.8205C43.0266 68.9116 44.6808 67.9846 46.444 67.9846Z" fill="#01396C"></path>
  <path d="M9.99775 68.9297C9.94321 68.9297 9.8705 68.9297 9.79779 68.9115C9.30699 68.8025 8.99797 68.3299 9.10704 67.8391L15.5965 37.5369C15.7055 37.0461 16.1782 36.737 16.669 36.8461C17.1598 36.9552 17.4688 37.4278 17.3597 37.9186L10.8885 68.2026C10.7976 68.6389 10.4158 68.9297 9.99775 68.9297Z" fill="#01396C"></path>
  <path d="M64.658 68.9298C64.2399 68.9298 63.8582 68.639 63.7673 68.2027L57.2779 37.9005C57.1688 37.4097 57.4778 36.9189 57.9686 36.828C58.4594 36.719 58.9502 37.028 59.0411 37.5188L65.5305 67.821C65.6396 68.3118 65.3306 68.8026 64.8398 68.8935C64.7853 68.9117 64.7126 68.9298 64.658 68.9298Z" fill="#01396C"></path>
  <path d="M37.337 73.2561C36.828 73.2561 36.4281 72.8562 36.4281 72.3472V37.7187C36.4281 37.2097 36.828 36.8098 37.337 36.8098C37.8459 36.8098 38.2458 37.2097 38.2458 37.7187V72.3472C38.2458 72.8562 37.8278 73.2561 37.337 73.2561Z" fill="#01396C"></path>
  <path d="M19.1048 80C15.7601 80 13.0334 77.2734 13.0334 73.9287C13.0334 72.6199 13.4515 71.3656 14.2331 70.3113C14.524 69.9114 15.1057 69.8205 15.5056 70.1295C15.9055 70.4204 15.9964 71.0021 15.6874 71.402C15.142 72.1473 14.8512 73.0198 14.8512 73.9287C14.8512 76.2736 16.7598 78.1822 19.1048 78.1822C21.4497 78.1822 23.3583 76.2736 23.3583 73.9287C23.3583 73.0016 23.0675 72.1291 22.5222 71.402C22.2313 71.0021 22.304 70.4386 22.7039 70.1295C23.1039 69.8205 23.6674 69.9114 23.9764 70.3113C24.758 71.3656 25.1761 72.6199 25.1761 73.9287C25.1761 77.2734 22.4495 80 19.1048 80Z" fill="#01396C"></path>
  <path d="M55.551 80C52.2063 80 49.4797 77.2734 49.4797 73.9287C49.4797 72.6199 49.8978 71.3656 50.6794 70.3113C50.9702 69.9114 51.5519 69.8205 51.9518 70.1295C52.3518 70.4204 52.4426 71.0021 52.1336 71.402C51.5883 72.1473 51.2974 73.0198 51.2974 73.9287C51.2974 76.2736 53.2061 78.1822 55.551 78.1822C57.8959 78.1822 59.8046 76.2736 59.8046 73.9287C59.8046 73.0016 59.5138 72.1291 58.9684 71.402C58.6776 71.0021 58.7503 70.4386 59.1502 70.1295C59.5501 69.8205 60.1136 69.9114 60.4226 70.3113C61.2043 71.3656 61.6224 72.6199 61.6224 73.9287C61.6224 77.2734 58.8957 80 55.551 80Z" fill="#01396C"></path>
  <path d="M62.1132 24.9216C61.6042 24.9216 61.2043 24.5217 61.2043 24.0127C61.2043 14.4512 53.4242 6.67116 43.8628 6.67116C34.3013 6.67116 26.5213 14.4512 26.5213 24.0127C26.5213 24.5217 26.1214 24.9216 25.6124 24.9216C25.1034 24.9216 24.7035 24.5217 24.7035 24.0127C24.7035 13.4514 33.3015 4.85339 43.8628 4.85339C54.424 4.85339 63.0221 13.4514 63.0221 24.0127C63.0221 24.5035 62.604 24.9216 62.1132 24.9216Z" fill="#01396C"></path>
  <path d="M46.753 6.88926C46.244 6.88926 45.8441 6.48935 45.8441 5.98037V3.9263C45.8441 3.36279 45.3897 2.90834 44.8262 2.90834H42.8993C42.3358 2.90834 41.8814 3.36279 41.8814 3.9263V5.98037C41.8814 6.48935 41.4815 6.88926 40.9725 6.88926C40.4635 6.88926 40.0636 6.48935 40.0636 5.98037V3.9263C40.0636 2.36301 41.336 1.09058 42.8993 1.09058H44.8262C46.3894 1.09058 47.6619 2.36301 47.6619 3.9263V5.98037C47.6619 6.48935 47.2438 6.88926 46.753 6.88926Z" fill="#01396C"></path>
  <path d="M61.6042 20.6498H26.1032C25.5942 20.6498 25.1943 20.2499 25.1943 19.7409C25.1943 19.2319 25.5942 18.832 26.1032 18.832H61.6042C62.1132 18.832 62.5131 19.2319 62.5131 19.7409C62.5131 20.2499 62.1132 20.6498 61.6042 20.6498Z" fill="#01396C"></path>
  <path d="M15.3238 16.7053C12.6153 16.7053 10.434 14.5603 10.1432 11.6155L9.07067 0.999773C9.05249 0.745285 9.1252 0.490798 9.30698 0.290843C9.48876 0.0908885 9.72507 0 9.97956 0H20.668C20.9225 0 21.177 0.109066 21.3406 0.290843C21.5042 0.47262 21.5951 0.727107 21.5769 0.999773L20.5044 11.6155C20.1954 14.5785 18.0141 16.7053 15.3238 16.7053ZM10.9793 1.81777L11.9427 11.4338C12.1063 13.1606 13.3242 14.8875 15.3056 14.8875C17.287 14.8875 18.5049 13.1425 18.6685 11.4338L19.6319 1.81777C19.6501 1.81777 10.9793 1.81777 10.9793 1.81777Z" fill="#01396C"></path>
  <path d="M16.9962 24.9217C16.4872 24.9217 16.0873 24.5218 16.0873 24.0128V15.4329C16.0873 14.924 16.4872 14.524 16.9962 14.524C17.5051 14.524 17.905 14.924 17.905 15.4329V23.9946C17.905 24.5036 17.5051 24.9217 16.9962 24.9217ZM13.6333 24.9217C13.1243 24.9217 12.7244 24.5218 12.7244 24.0128V15.4329C12.7244 14.924 13.1243 14.524 13.6333 14.524C14.1423 14.524 14.5422 14.924 14.5422 15.4329V23.9946C14.5422 24.5036 14.1241 24.9217 13.6333 24.9217Z" fill="#01396C"></path>
  <path d="M19.1047 73.2561C19.032 73.2561 18.9775 73.2561 18.9048 73.2379C18.414 73.1288 18.105 72.638 18.214 72.1472L23.9036 46.244C24.0127 45.7532 24.5035 45.4442 24.9943 45.5533C25.4851 45.6623 25.7941 46.1531 25.6851 46.6439L19.9954 72.5471C19.9046 72.9652 19.5228 73.2561 19.1047 73.2561Z" fill="#01396C"></path>
  <path d="M55.551 73.2561C55.1329 73.2561 54.7512 72.9652 54.6603 72.5471L48.9707 46.6439C48.8616 46.1531 49.1706 45.6623 49.6614 45.5533C50.1522 45.4442 50.643 45.7532 50.7521 46.244L56.4417 72.1472C56.5508 72.638 56.2418 73.1288 55.751 73.2379C55.6783 73.2561 55.6055 73.2561 55.551 73.2561Z" fill="#01396C"></path>
</svg>
