<svg width="30" height="23" viewBox="0 0 30 23" fill="none" xmlns="http://www.w3.org/2000/svg">
<path d="M6.25 0.349609H23.749C26.9936 0.349819 29.6491 2.99401 29.6504 6.25V16.25C29.6504 19.4944 26.9944 22.1503 23.75 22.1504H6.25C2.99278 22.1503 0.349609 19.4949 0.349609 16.25V6.25C0.349691 2.99356 2.99356 0.349691 6.25 0.349609ZM26.8037 4.10742L16.8906 11.5439C16.3289 11.9596 15.6656 12.162 15.001 12.1621C14.3226 12.1621 13.6585 11.9585 13.0967 11.5439H13.0977L3.19824 4.10742L2.88086 3.86914L2.68359 4.21387C2.34009 4.81602 2.15039 5.51344 2.15039 6.24902V16.249C2.15044 18.5039 3.98155 20.3486 6.25 20.3486H23.749C26.0045 20.3484 27.8486 18.5046 27.8486 16.249L27.8506 6.24902L27.8418 5.97363C27.798 5.33687 27.6043 4.7408 27.3203 4.21973L27.127 3.86426L26.8037 4.10742ZM6.25 2.15039C5.74369 2.15041 5.25197 2.24576 4.81445 2.41016L4.2168 2.63477L4.72754 3.01758L14.1895 10.1045C14.6366 10.4391 15.2416 10.4575 15.7129 10.1699L15.8047 10.1074L15.8096 10.1045L25.2588 3.00488L25.7695 2.62207L25.1719 2.39746C24.7297 2.23134 24.2497 2.15041 23.75 2.15039H6.25Z" fill="#01396C" stroke="white" stroke-width="0.7"/>
</svg>
