<?xml version="1.0" encoding="UTF-8"?>
<svg xmlns="http://www.w3.org/2000/svg" width="31" height="50" viewBox="0 0 31 50" fill="none">
  <path d="M10.4397 28.069L2.69042 49.1765C2.66252 49.252 2.64977 49.3321 2.65291 49.4125C2.65604 49.4928 2.675 49.5718 2.70869 49.6448C2.74238 49.7178 2.79014 49.7835 2.84924 49.838C2.90834 49.8925 2.97761 49.9348 3.05309 49.9625C3.12858 49.9903 3.20879 50.0028 3.28913 49.9995C3.36947 49.9961 3.44836 49.977 3.52129 49.9431C3.59422 49.9093 3.65975 49.8613 3.71414 49.8021C3.76852 49.7429 3.81068 49.6735 3.83821 49.5979L11.6544 28.3084C12.6514 28.4733 13.6586 28.5694 14.6688 28.5959V46.484C14.6688 46.6461 14.7332 46.8016 14.8478 46.9162C14.9624 47.0309 15.1179 47.0952 15.28 47.0952C15.4421 47.0952 15.5976 47.0309 15.7122 46.9162C15.8268 46.8016 15.8912 46.6461 15.8912 46.484V28.5959C16.9014 28.5694 17.9086 28.4733 18.9056 28.3084L26.7218 49.5979C26.7779 49.7498 26.892 49.8731 27.039 49.9409C27.186 50.0088 27.3539 50.0155 27.5059 49.9597C27.6578 49.9039 27.7815 49.7902 27.8496 49.6433C27.9178 49.4965 27.925 49.3286 27.8696 49.1765L20.1202 28.069C26.1797 26.689 30.56 22.7951 30.56 18.2161H30.531C30.5497 18.1153 30.5594 18.013 30.56 17.9105C30.56 14.901 22.8731 13.3265 15.28 13.3265C7.68685 13.3265 0 14.901 0 17.9105C0.000602214 18.013 0.0103152 18.1153 0.0290254 18.2161H0C0 22.7951 4.38032 26.689 10.4397 28.069ZM19.6975 26.9177L19.1182 25.3398C19.062 25.1879 18.9479 25.0646 18.801 24.9968C18.654 24.9289 18.4861 24.9222 18.3341 24.978C18.1822 25.0338 18.0585 25.1475 17.9903 25.2944C17.9222 25.4412 17.915 25.6091 17.9704 25.7612L18.4773 27.1419C16.358 27.4648 14.202 27.4648 12.0826 27.1419L12.5896 25.7612C12.645 25.6091 12.6378 25.4412 12.5696 25.2944C12.5015 25.1475 12.3778 25.0338 12.2259 24.978C12.0739 24.9222 11.906 24.9289 11.759 24.9968C11.612 25.0646 11.498 25.1879 11.4418 25.3398L10.8625 26.9177C6.11562 25.89 2.48378 23.2556 1.49341 20.0063C4.09273 21.6459 9.70952 22.4945 15.28 22.4945C20.8505 22.4945 26.4673 21.6459 29.0666 20.0063C28.0762 23.2556 24.4444 25.89 19.6975 26.9177ZM10.0391 21.0091V14.8119C10.9919 14.7127 12.0106 14.6409 13.0951 14.5965V21.2245C12.0114 21.1815 10.9927 21.1097 10.0391 21.0091ZM8.81673 20.864C7.82886 20.731 6.92184 20.5727 6.112 20.3928V15.4281C6.92184 15.2482 7.82886 15.09 8.81673 14.9569V20.864ZM22.8743 20.6944V15.1266C23.7758 15.2771 24.5938 15.4497 25.3191 15.6393V20.1816C24.5938 20.3712 23.7758 20.5438 22.8743 20.6944ZM21.6519 20.8763C20.707 21.0013 19.6903 21.1022 18.5959 21.1699V14.651C19.6903 14.7187 20.707 14.8197 21.6519 14.9446V20.8763ZM29.3376 17.9105C29.3376 18.5119 28.3491 19.2144 26.5415 19.8218V15.9991C28.3491 16.6065 29.3376 17.309 29.3376 17.9105ZM17.3735 14.5926V21.2283C16.6966 21.254 16.0046 21.2721 15.28 21.2721C14.9512 21.2721 14.6367 21.264 14.3175 21.2586V14.5624C14.6367 14.5569 14.9512 14.5489 15.28 14.5489C16.0046 14.5489 16.6966 14.5669 17.3735 14.5926ZM4.8896 15.7319V20.089C2.52758 19.4285 1.2224 18.6025 1.2224 17.9105C1.2224 17.2185 2.52758 16.3924 4.8896 15.7319ZM14.5816 6.91783C13.0044 9.54646 14.5975 11.2855 14.6139 11.3028C14.6698 11.361 14.7136 11.4297 14.7427 11.505C14.7719 11.5802 14.7859 11.6605 14.7839 11.7412C14.7819 11.8219 14.7639 11.9014 14.731 11.9751C14.6981 12.0488 14.6509 12.1152 14.5922 12.1706C14.5334 12.226 14.4643 12.2692 14.3888 12.2977C14.3133 12.3262 14.2329 12.3395 14.1523 12.3368C14.0716 12.3341 13.9923 12.3154 13.9188 12.2818C13.8454 12.2483 13.7794 12.2005 13.7245 12.1413C12.9417 11.3114 11.8948 9.01998 13.5335 6.28868C15.032 3.79136 11.7369 1.70976 11.5961 1.62261C11.4588 1.53721 11.361 1.40092 11.324 1.24356C11.287 1.08621 11.3139 0.920601 11.3987 0.78299C11.4835 0.645378 11.6194 0.546969 11.7766 0.509299C11.9337 0.471629 12.0995 0.497766 12.2374 0.581991C13.7902 1.53699 16.278 4.09043 14.5816 6.91783ZM18.5159 5.31104C17.2679 8.73263 18.1641 9.8446 18.1733 9.85565C18.2511 9.94464 18.3016 10.0541 18.3188 10.171C18.336 10.2879 18.3192 10.4073 18.2705 10.5149C18.2217 10.6226 18.143 10.7139 18.0438 10.778C17.9445 10.8421 17.8289 10.8764 17.7108 10.8766C17.633 10.8767 17.556 10.8614 17.4843 10.8315C17.4125 10.8016 17.3474 10.7578 17.2927 10.7026C17.1393 10.5492 15.8387 9.08356 17.3676 4.89201C18.1862 2.64686 15.8891 1.14363 15.8659 1.12871C15.7976 1.08571 15.7385 1.02963 15.692 0.963694C15.6455 0.897756 15.6125 0.823266 15.595 0.74452C15.5774 0.665774 15.5756 0.584328 15.5896 0.504878C15.6037 0.425429 15.6333 0.349547 15.6768 0.281607C15.7204 0.213667 15.7769 0.155013 15.8432 0.109026C15.9095 0.0630395 15.9842 0.03063 16.0631 0.013666C16.142 -0.00329807 16.2234 -0.00448059 16.3028 0.0101856C16.3821 0.0248517 16.4578 0.0550769 16.5254 0.0991187C17.6162 0.798087 19.4363 2.78656 18.5159 5.31104Z" fill="#01396C"></path>
</svg>
