<svg width="30" height="30" viewBox="0 0 30 30" fill="none" xmlns="http://www.w3.org/2000/svg">
<path d="M0.445422 12.1173C0.468296 12.1839 0.504078 12.2454 0.55072 12.2982C0.597363 12.3509 0.653951 12.394 0.717248 12.4249C0.780544 12.4557 0.849308 12.4738 0.919605 12.4781C0.989903 12.4824 1.06035 12.4728 1.12693 12.4498C1.19351 12.4268 1.2549 12.391 1.3076 12.3442C1.3603 12.2975 1.40327 12.2409 1.43406 12.1775C1.46485 12.1142 1.48284 12.0454 1.48702 11.9751C1.4912 11.9048 1.48147 11.8344 1.45841 11.7678C-0.0511147 7.39721 3.11498 3.41956 5.13545 1.43859C5.35639 1.22547 5.64505 1.09655 5.95122 1.07428C6.25738 1.052 6.56166 1.13777 6.81112 1.31667C8.25134 2.32756 10.7349 4.45295 11.1864 7.33075C11.212 7.51291 11.1976 7.69846 11.1442 7.87448C11.0908 8.05051 10.9997 8.21278 10.8772 8.35002C10.2394 9.10478 9.55895 9.82244 8.83918 10.4995C8.39521 10.8939 8.06068 11.3964 7.86803 11.9582C7.67538 12.5199 7.63114 13.122 7.7396 13.7059C8.01822 15.1343 8.78633 16.3843 10.6943 18.5045L11.5213 19.3296C13.4845 21.0249 14.8357 21.9955 16.3508 22.2691C16.9349 22.3645 17.5338 22.3092 18.0906 22.1085C18.6475 21.9078 19.1439 21.5683 19.5329 21.1222C20.201 20.4172 20.9066 19.7488 21.6467 19.1198C21.7837 18.9971 21.9458 18.9058 22.1217 18.8524C22.2977 18.799 22.4832 18.7847 22.6652 18.8105C25.5446 19.2621 27.6694 21.7459 28.6809 23.1874C28.8591 23.4366 28.9445 23.7403 28.9222 24.0459C28.9 24.3514 28.7714 24.6395 28.559 24.8602C26.5377 26.9228 22.4849 30.135 18.0489 28.4789C14.4303 27.0373 11.1051 24.9472 8.23694 22.3116L7.70061 21.7763C5.4987 19.3652 3.66296 16.6438 2.25216 13.6991C2.22257 13.6351 2.18065 13.5777 2.12882 13.5299C2.07698 13.4822 2.01625 13.4452 1.95008 13.421C1.88392 13.3967 1.81363 13.3858 1.74323 13.3888C1.67284 13.3918 1.60372 13.4086 1.53984 13.4383C1.47596 13.468 1.41856 13.5101 1.37094 13.562C1.32332 13.6139 1.28641 13.6747 1.26233 13.7409C1.23824 13.8072 1.22745 13.8775 1.23057 13.9479C1.23368 14.0182 1.25066 14.0873 1.28051 14.1512C2.74189 17.2022 4.64474 20.0213 6.92778 22.5177L7.49576 23.0849C10.4699 25.8205 13.9196 27.9888 17.6743 29.4825C18.5836 29.8248 19.5473 30.0001 20.5189 30C24.5156 30 27.8824 27.0814 29.3252 25.6095C29.7126 25.2098 29.9479 24.687 29.9903 24.132C30.0327 23.5769 29.8795 23.0245 29.5573 22.5706C28.449 20.9909 26.1018 18.2648 22.8303 17.7515C22.4944 17.702 22.1517 17.7264 21.8262 17.8228C21.5007 17.9192 21.2001 18.0854 20.9453 18.3098C20.1732 18.9662 19.4375 19.664 18.7412 20.4002C18.4726 20.7097 18.1304 20.9467 17.746 21.089C17.3617 21.2314 16.9477 21.2747 16.5423 21.2148C15.4095 21.0103 14.319 20.3295 12.2502 18.5453L11.4716 17.7672C9.72947 15.8307 9.02808 14.7142 8.79105 13.4987C8.71797 13.0965 8.75009 12.6823 8.88431 12.2963C9.01853 11.9102 9.25028 11.5654 9.55707 11.2953C10.3092 10.5889 11.0202 9.83998 11.6866 9.05219C11.9113 8.79733 12.0777 8.49652 12.1742 8.17074C12.2707 7.84496 12.2949 7.50205 12.2452 7.16594C11.7322 3.8957 9.00584 1.54794 7.42775 0.440252C6.9734 0.1178 6.42053 -0.0354983 5.865 0.00693315C5.30947 0.0493646 4.78629 0.28485 4.38618 0.672567C2.61319 2.41076 -1.31998 7.00583 0.445422 12.1173Z" fill="#01396C"/>
</svg>
