<?xml version="1.0" encoding="UTF-8"?>
<svg xmlns="http://www.w3.org/2000/svg" width="50" height="50" viewBox="0 0 50 50" fill="none">
  <path d="M25.0002 50C20.0557 50 15.2222 48.5338 11.111 45.7867C6.99977 43.0397 3.79546 39.1352 1.90327 34.5671C0.0110762 29.9989 -0.484007 24.9723 0.480623 20.1227C1.44525 15.2732 3.82627 10.8187 7.32258 7.32234C10.8189 3.82603 15.2735 1.44501 20.123 0.480379C24.9725 -0.484251 29.9992 0.0108321 34.5673 1.90302C39.1355 3.79521 43.0399 6.99953 45.787 11.1108C48.534 15.222 50.0002 20.0555 50.0002 25C49.9927 31.6281 47.3564 37.9826 42.6696 42.6694C37.9828 47.3561 31.6284 49.9925 25.0002 50ZM25.0002 1.16765C20.2867 1.16765 15.6789 2.5654 11.7597 5.18413C7.84049 7.80286 4.78584 11.525 2.98203 15.8798C1.17821 20.2346 0.706254 25.0264 1.62583 29.6495C2.54541 34.2725 4.81522 38.519 8.14823 41.852C11.4812 45.185 15.7278 47.4549 20.3508 48.3744C24.9738 49.294 29.7657 48.822 34.1205 47.0182C38.4753 45.2144 42.1974 42.1598 44.8161 38.2406C47.4349 34.3213 48.8326 29.7136 48.8326 25C48.8254 18.6815 46.3122 12.6238 41.8443 8.15591C37.3765 3.68803 31.3188 1.17482 25.0002 1.16765Z" fill="#01396C"></path>
  <path d="M21.2264 17.7229C20.0741 17.7334 18.9331 17.4953 17.8811 17.0247C17.1445 16.7261 16.4895 16.2563 15.9704 15.6543C15.4514 15.0523 15.0831 14.3353 14.8962 13.5627C14.7534 12.7808 14.7988 11.9761 15.0287 11.2152C15.2586 10.4543 15.6664 9.75912 16.2183 9.18712C17.4533 7.84455 19.0852 6.932 20.8757 6.58275C24.8128 5.74718 28.5355 7.51978 29.1747 10.5335C29.8141 13.5473 27.1313 16.6782 23.1948 17.5132C22.5478 17.6516 21.8881 17.7218 21.2264 17.7229ZM22.8459 7.54138C22.2651 7.54235 21.6861 7.60387 21.1181 7.72493C19.5735 8.02209 18.1641 8.80459 17.0952 9.95846C16.6657 10.3953 16.346 10.9279 16.1623 11.5123C15.9786 12.0968 15.9362 12.7165 16.0385 13.3206C16.1902 13.9142 16.4806 14.4633 16.8858 14.9229C17.2911 15.3824 17.7996 15.7392 18.3695 15.964C19.8151 16.5839 21.4207 16.7266 22.9529 16.3714C26.2594 15.6698 28.5383 13.1598 28.0331 10.776C27.6165 8.81534 25.4439 7.54138 22.8459 7.54138Z" fill="#01396C"></path>
  <path d="M30.6931 49.3291C30.5465 49.3289 30.4054 49.2736 30.2977 49.1742C30.19 49.0747 30.1237 48.9384 30.1119 48.7923C29.0177 35.2364 26.8253 24.499 23.5952 16.878C23.5348 16.7354 23.5335 16.5746 23.5916 16.4311C23.6498 16.2876 23.7625 16.173 23.9051 16.1126C24.0477 16.0522 24.2085 16.051 24.352 16.1091C24.4955 16.1672 24.6101 16.28 24.6705 16.4226C27.9493 24.1588 30.1714 35.0179 31.2755 48.6984C31.2879 48.8527 31.2386 49.0056 31.1383 49.1236C31.038 49.2415 30.895 49.3148 30.7407 49.3273C30.7247 49.3283 30.7087 49.3291 30.6931 49.3291Z" fill="#01396C"></path>
  <path d="M18.8152 8.50756C18.7349 8.50769 18.6555 8.49122 18.5819 8.45918C18.5083 8.42714 18.4421 8.38022 18.3875 8.32138C15.014 4.69445 12.2346 4.80707 12.2078 4.80794C12.0533 4.81838 11.901 4.76701 11.7844 4.66515C11.6677 4.56328 11.5964 4.41925 11.5859 4.26475C11.5755 4.11026 11.6269 3.95794 11.7287 3.84131C11.8306 3.72469 11.9746 3.6533 12.1291 3.64287C12.2645 3.63458 15.4553 3.4547 19.2427 7.52604C19.3202 7.60928 19.3717 7.71331 19.3908 7.82538C19.41 7.93745 19.396 8.05268 19.3506 8.15691C19.3052 8.26114 19.2303 8.34985 19.1352 8.41214C19.0401 8.47443 18.9288 8.50759 18.8152 8.50756Z" fill="#01396C"></path>
  <path d="M49.0045 30.053C48.9161 30.0532 48.829 30.0332 48.7495 29.9947C48.67 29.9562 48.6004 29.9001 48.5458 29.8306C41.2751 20.6078 34.4135 15.2069 28.1514 13.7781C28.0766 13.761 28.006 13.7294 27.9435 13.685C27.8809 13.6407 27.8278 13.5844 27.787 13.5195C27.7462 13.4545 27.7186 13.3822 27.7057 13.3066C27.6929 13.231 27.6951 13.1536 27.7122 13.0789C27.7292 13.0041 27.7609 12.9335 27.8052 12.871C27.8496 12.8084 27.9059 12.7552 27.9708 12.7145C28.0357 12.6737 28.1081 12.6461 28.1836 12.6332C28.2592 12.6204 28.3366 12.6226 28.4114 12.6397C34.94 14.1294 42.0228 19.6702 49.4623 29.1077C49.5302 29.1937 49.5725 29.2972 49.5843 29.4061C49.5962 29.5151 49.5771 29.6252 49.5293 29.7238C49.4815 29.8224 49.4069 29.9056 49.314 29.9638C49.2212 30.022 49.114 30.0529 49.0045 30.053Z" fill="#01396C"></path>
  <path d="M3.29886 36.7738C3.24576 36.7738 3.19291 36.7666 3.14181 36.7521C2.99268 36.7106 2.86616 36.6115 2.79008 36.4766C2.714 36.3418 2.69459 36.1823 2.73611 36.0331C2.90577 35.4251 6.99334 21.0733 16.2282 14.9269C16.2921 14.8845 16.3636 14.855 16.4389 14.8401C16.5141 14.8253 16.5915 14.8254 16.6667 14.8405C16.7418 14.8556 16.8133 14.8854 16.877 14.9281C16.9407 14.9708 16.9953 15.0256 17.0378 15.0894C17.0803 15.1533 17.1098 15.2248 17.1246 15.3001C17.1395 15.3753 17.1393 15.4527 17.1242 15.5279C17.1092 15.603 17.0794 15.6745 17.0367 15.7382C16.994 15.8019 16.9392 15.8565 16.8753 15.899C8.00481 21.8028 3.90101 36.2022 3.86102 36.3468C3.82674 36.4695 3.75324 36.5777 3.65175 36.6548C3.55025 36.7319 3.42632 36.7737 3.29886 36.7738Z" fill="#01396C"></path>
  <path d="M26.2514 8.33897C26.1292 8.33914 26.01 8.30095 25.9106 8.22978C25.8112 8.15861 25.7367 8.05805 25.6975 7.94227C25.6584 7.82649 25.6565 7.70134 25.6923 7.58446C25.728 7.46757 25.7995 7.36485 25.8967 7.29077C28.2212 5.51853 32.9819 2.75448 38.7503 4.16073C38.8248 4.17889 38.8949 4.21155 38.9568 4.25683C39.0187 4.30211 39.071 4.35914 39.1109 4.42466C39.1507 4.49018 39.1773 4.5629 39.189 4.63867C39.2007 4.71444 39.1974 4.79179 39.1792 4.86628C39.1611 4.94078 39.1284 5.01096 39.0832 5.07284C39.0379 5.13471 38.9808 5.18706 38.9153 5.2269C38.8498 5.26674 38.7771 5.29328 38.7013 5.30501C38.6255 5.31674 38.5482 5.31343 38.4737 5.29527C33.1766 4.00339 28.7637 6.57326 26.6046 8.21952C26.5031 8.29694 26.379 8.3389 26.2514 8.33897Z" fill="#01396C"></path>
</svg>
