<?xml version="1.0" encoding="UTF-8"?>
<svg xmlns="http://www.w3.org/2000/svg" width="47" height="50" viewBox="0 0 47 50" fill="none">
  <path d="M37.7283 24.729L37.729 24.7572V24.7716L37.7283 24.7854C37.7736 27.8433 37.1161 30.4497 35.7558 32.6014C34.4007 34.7478 32.3573 36.4323 29.6301 37.6502C29.3663 37.8858 29.1741 38.1253 29.0592 38.3655C28.9529 38.5886 28.9076 38.8196 28.926 39.0558L28.928 39.0696C28.9313 39.0965 28.9346 39.126 28.9346 39.1542L28.9319 39.2094C28.9372 39.9581 28.9405 40.7062 28.9411 41.4542L28.9431 41.4969L28.9411 41.5467C28.9424 42.2902 28.9411 43.0337 28.9391 43.7772L28.9431 43.8435L28.9385 43.9143L28.9319 45.5371L28.9326 45.5509V45.564C28.9332 45.6355 28.9201 45.7064 28.8932 45.7747L28.8558 45.8521C28.5868 46.3068 28.1537 46.6842 27.609 46.9814C27.174 47.219 26.6602 47.4093 26.1024 47.5497C25.958 48.6757 25.2703 49.4212 24.4166 49.7735C24.0504 49.9238 23.6515 50.0006 23.2545 49.9999C22.8588 50.0026 22.4585 49.9245 22.0891 49.7703C21.2229 49.408 20.524 48.6357 20.3882 47.4506C19.9 47.3069 19.4505 47.1251 19.062 46.9066C18.5692 46.6297 18.1637 46.2878 17.8854 45.8823C17.8139 45.7773 17.7831 45.6559 17.7903 45.5371C17.8021 43.4281 17.806 41.3204 17.7903 39.2113L17.7877 39.1542C17.7877 39.126 17.7903 39.0991 17.7942 39.0722L17.7955 39.0604C17.8126 38.8242 17.7693 38.5892 17.663 38.3675C17.5481 38.1253 17.3559 37.8858 17.0921 37.6502C14.3649 36.4323 12.3215 34.7478 10.9664 32.6014C9.60679 30.4497 8.94928 27.8433 8.9939 24.7854L8.99324 24.7716V24.7572L8.9939 24.729C9.20716 20.2189 10.5826 16.4234 13.1181 13.7953C15.5113 11.3129 18.9189 9.88108 23.3326 9.87452L23.347 9.87387H23.3614H23.3759L23.3903 9.87452C27.9253 9.88108 31.3973 11.3923 33.799 14.002L33.8305 14.0342C36.221 16.6511 37.5216 20.3527 37.7283 24.729ZM5.09869 22.7525C5.40513 22.7525 5.65449 23.0018 5.65449 23.3083C5.65449 23.6147 5.40513 23.8641 5.09869 23.8641H0.555803C0.249357 23.8641 0 23.6147 0 23.3083C0 23.0018 0.249357 22.7525 0.555803 22.7525H5.09869ZM10.8011 10.0366C11.0176 10.2518 11.0189 10.6036 10.8037 10.8201C10.5885 11.0367 10.2367 11.038 10.0202 10.8227L7.02267 7.82455C6.80743 7.608 6.80875 7.25628 7.02529 7.04104C7.24184 6.82581 7.59356 6.82712 7.8088 7.04367L10.8011 10.0366ZM23.8457 5.20893C23.8457 5.51537 23.5964 5.76473 23.2899 5.76473C22.9835 5.76473 22.7341 5.51537 22.7341 5.20893V0.555802C22.7341 0.249356 22.9835 0 23.2899 0C23.5964 0 23.8457 0.249356 23.8457 0.555802V5.20893ZM36.6725 10.8181C36.4586 11.036 36.1068 11.0386 35.889 10.8247C35.6711 10.6108 35.6685 10.2591 35.8824 10.0412C36.9553 8.95518 38.0223 7.88689 39.109 6.81597C39.3288 6.60401 39.6799 6.61123 39.8918 6.83106C40.1038 7.05089 40.0965 7.40195 39.8767 7.61391C38.7986 8.67695 37.7388 9.74263 36.6725 10.8181ZM41.554 23.828C41.2475 23.828 40.9982 23.5786 40.9982 23.2722C40.9982 22.9657 41.2475 22.7164 41.554 22.7164H46.2432C46.5496 22.7164 46.799 22.9657 46.799 23.2722C46.799 23.5786 46.5496 23.828 46.2432 23.828H41.554ZM35.7965 36.3562C35.5917 36.1298 35.6094 35.78 35.8358 35.5753C36.0622 35.3706 36.412 35.3883 36.6167 35.6147C37.0701 36.1154 37.5846 36.6535 38.1594 37.2283C38.7205 37.7893 39.3006 38.3451 39.8964 38.8918C40.1215 39.0985 40.1359 39.4502 39.9292 39.6753C39.7225 39.9003 39.3708 39.9148 39.1457 39.7081C38.5072 39.1221 37.9147 38.5558 37.3733 38.0144C36.8438 37.4849 36.3168 36.9304 35.7965 36.3562ZM10.1475 35.6856C10.3739 35.4795 10.725 35.4959 10.931 35.7223C11.1371 35.9487 11.1206 36.2998 10.8943 36.5058C10.37 36.9816 9.84368 37.4835 9.32069 38.0059C8.77932 38.5499 8.24648 39.107 7.72349 39.6766C7.51679 39.9016 7.16506 39.9161 6.93999 39.7094C6.71491 39.5027 6.70047 39.151 6.90718 38.9259C7.46889 38.3143 8.01288 37.7441 8.53587 37.2211C9.08511 36.6751 9.62254 36.162 10.1475 35.6856ZM27.8308 44.4012L23.3739 44.415C21.8883 44.4248 20.3967 44.4419 18.9025 44.4623L18.8979 45.3836C19.0725 45.5903 19.314 45.7766 19.604 45.9394C19.9997 46.1618 20.4787 46.3396 21.0037 46.4709C21.0352 46.4755 21.0654 46.4834 21.0949 46.4925C21.7636 46.6513 22.5018 46.738 23.2413 46.7504C23.9861 46.7629 24.7329 46.7032 25.4134 46.57C25.4462 46.5601 25.481 46.5536 25.5157 46.5496C26.1096 46.4263 26.6483 46.2445 27.0801 46.0089C27.3997 45.8344 27.6569 45.6303 27.8262 45.4013L27.8308 44.4012ZM18.9058 43.3559C20.3908 43.3356 21.8797 43.3191 23.37 43.3087L27.8341 43.2903L27.8354 42.0546L23.3102 42.0737L18.9071 42.0546L18.9058 43.3559ZM18.9052 40.9476L23.3102 40.9621L27.8334 40.9476L27.8289 39.71H18.8999L18.9052 40.9476ZM25.5243 34.5129C24.7933 34.6612 24.0813 34.7583 23.3673 34.778C22.6534 34.7977 21.9427 34.7413 21.2157 34.5844C21.3357 35.1862 21.4512 35.7866 21.5628 36.3824C21.7012 37.1226 21.8351 37.8615 21.9618 38.5984H24.7637C24.8917 37.8563 25.0262 37.1115 25.166 36.3654C25.2808 35.7512 25.4009 35.1337 25.5243 34.5129ZM20.9702 33.3803C21.78 33.61 22.5582 33.6933 23.3372 33.6717C24.1246 33.6494 24.9245 33.5214 25.7644 33.3291C25.9967 32.2083 26.2428 31.0889 26.4994 29.9759C26.6903 29.1465 26.8839 28.3308 27.0814 27.5303C25.3287 28.4004 24.7893 27.9043 24.2001 27.3603C23.9802 27.1582 23.7473 26.943 23.3024 26.9548L23.2886 26.9561H23.2761L23.2617 26.9568L23.2177 26.9561C22.7334 26.9253 22.3988 27.1549 22.0871 27.3695C21.4296 27.8223 20.8278 28.2344 19.669 27.6353C19.8547 28.3925 20.0384 29.1629 20.2189 29.9458C20.4814 31.0876 20.7327 32.2326 20.9702 33.3803ZM14.2474 24.7762C14.3643 27.1517 14.9529 29.0461 16.0113 30.4563C16.9097 31.6525 18.163 32.5141 19.7668 33.0365C19.5673 32.0896 19.3573 31.1407 19.1388 30.1925C18.8605 28.9844 18.5567 27.7409 18.2326 26.4712C18.1184 25.9528 17.9583 25.4121 17.8218 24.8963C17.7443 24.6003 17.9209 24.2965 18.2168 24.2191C18.5128 24.1417 18.8166 24.3182 18.894 24.6141C19.0167 25.0774 19.1302 25.5558 19.2582 26.0184C20.5595 27.0749 20.9834 26.7855 21.4584 26.4587C21.9204 26.1404 22.4158 25.8005 23.265 25.8484C24.1627 25.8183 24.5688 26.1916 24.9508 26.544C25.3117 26.8774 25.6385 27.1772 27.4542 26.0525L27.8308 24.6122C27.9096 24.3162 28.214 24.1403 28.51 24.2191C28.8059 24.2978 28.9818 24.6023 28.9031 24.8983L28.4746 26.5394C28.1543 27.7974 27.8544 29.0271 27.5795 30.2227C27.3833 31.0744 27.1943 31.9262 27.0132 32.7773C28.5389 31.9413 29.7371 30.9327 30.6059 29.7528C31.6414 28.3473 32.2175 26.6851 32.3324 24.7703V24.7552C32.3324 22.0602 31.3198 19.7543 29.7292 18.1026C28.0572 16.367 25.7421 15.3459 23.2899 15.3459C20.8377 15.3459 18.5226 16.367 16.8506 18.1026C15.26 19.7543 14.2474 22.0602 14.2474 24.7552V24.7762ZM20.0214 34.2675C17.911 33.7051 16.2777 32.6546 15.1254 31.1204C13.9325 29.5304 13.2697 27.4319 13.1411 24.8294L13.1358 24.7552C13.1358 21.7577 14.2704 19.1854 16.0527 17.3349C17.9268 15.3892 20.5168 14.2429 23.261 14.235L23.2755 14.2343H23.2899H23.3043L23.3188 14.235C26.063 14.2429 28.653 15.3892 30.5272 17.3349C32.3094 19.1854 33.444 21.7577 33.444 24.7552L33.4387 24.8307C33.3114 26.9666 32.6637 28.8269 31.4996 30.4077C30.3802 31.9275 28.7882 33.1821 26.7238 34.1691C26.563 34.9631 26.4056 35.763 26.2553 36.5688C26.1286 37.2427 26.0066 37.9199 25.8885 38.5984H27.8387C27.8748 38.355 27.9489 38.1174 28.0605 37.8858C28.2469 37.498 28.5389 37.1318 28.9326 36.7886L28.9464 36.7755C28.9923 36.7315 29.0461 36.6948 29.1071 36.6679C31.6683 35.5373 33.5732 33.9834 34.8187 32.0108C36.0629 30.0416 36.6646 27.6353 36.6226 24.7959L36.622 24.7815C36.4277 20.6651 35.2223 17.2023 33.0102 14.7809L32.9873 14.754C30.7916 12.3668 27.5834 10.9855 23.3614 10.9855C19.253 10.9855 16.1045 12.2933 13.9161 14.5631C11.5734 16.9917 10.3011 20.5391 10.1003 24.7815L10.0996 24.7959C10.0569 27.6346 10.6593 30.0416 11.9035 32.0108C13.149 33.9834 15.0539 35.5373 17.6151 36.6679C17.6761 36.6948 17.7306 36.7315 17.7758 36.7755L17.7857 36.7854C18.1788 37.1292 18.4754 37.498 18.6611 37.8865C18.7733 38.1181 18.8474 38.355 18.8829 38.5984H20.8364C20.7196 37.9252 20.5982 37.2532 20.4735 36.5859C20.3285 35.8083 20.1769 35.0346 20.0214 34.2675ZM24.9147 47.7695C24.3654 47.8378 23.7939 47.8673 23.2243 47.8568C22.6678 47.8469 22.1114 47.7997 21.5785 47.715C21.7452 48.2295 22.0976 48.5727 22.5143 48.7466C22.7439 48.8424 22.9986 48.891 23.2545 48.891C23.5078 48.8936 23.763 48.845 23.9953 48.7499C24.4041 48.5812 24.7493 48.2538 24.9147 47.7695Z" fill="#01396C"></path>
</svg>
