<?xml version="1.0" encoding="UTF-8"?>
<svg xmlns="http://www.w3.org/2000/svg" width="80" height="75" viewBox="0 0 80 75" fill="none">
  <path d="M23.1145 35.665C23.1365 35.7563 23.159 35.794 23.1665 35.8106C23.2295 35.9499 22.4495 34.9037 39.2224 56.7148C39.5665 57.1617 40.258 57.1405 40.5725 56.6651C57.4553 35.0552 56.8596 35.913 56.9021 35.5702C56.9041 35.5536 56.9094 35.4805 56.9084 35.4462C56.9082 35.4396 56.9001 35.3514 56.8975 35.3349C56.896 35.3263 56.8771 35.2442 56.8713 35.2252C56.8656 35.2063 56.8318 35.1208 56.8253 35.1077C56.7946 35.045 54.7534 31.7861 52.7121 28.5179C52.5608 28.276 52.2956 28.129 52.0105 28.129H27.9898C27.7045 28.129 27.4394 28.276 27.2882 28.5179C22.8812 35.5736 23.1959 35.0478 23.1468 35.1772C23.1231 35.2399 23.0753 35.4978 23.1145 35.665ZM43.198 29.7838L46.0794 34.6432H33.9207L36.8021 29.7838H43.198ZM33.6427 36.2979H46.345L39.8961 53.7865L33.6427 36.2979ZM31.8855 36.2979L37.342 51.5584L25.599 36.2979H31.8855ZM42.4982 51.5127L48.1085 36.2979H54.3852L42.4982 51.5127ZM54.5888 34.6432H48.0031L45.1217 29.7838H51.5515L54.5888 34.6432ZM28.4483 29.7838H34.8782L31.9968 34.6432H25.4112L28.4483 29.7838Z" fill="#01396C"></path>
  <path d="M79.436 47.0242C76.9777 46.199 74.2809 46.0535 71.6828 46.6634C71.9158 45.4498 72.0781 44.2172 72.1707 42.9805C77.8773 40.1229 80.678 34.098 79.0356 29.027C78.9057 28.6261 78.4951 28.3872 78.0826 28.4714C75.4661 29.0067 73.0451 30.2877 71.1463 32.0952C70.7977 30.8054 70.3685 29.5398 69.8661 28.3129C72.3003 22.8903 71.1179 16.4896 66.5961 13.4035C66.2479 13.1657 65.7767 13.2281 65.5022 13.5478C64.3982 14.8334 63.5426 16.3084 62.9608 17.8752C61.7924 16.6921 60.5304 15.5972 59.193 14.6061C58.4765 7.09546 51.9996 1.5135 45.5785 2.6792C45.1644 2.75448 44.8726 3.1286 44.9009 3.54872C45.418 11.2377 51.8905 16.8109 58.1888 15.9209C59.7112 17.0477 61.1311 18.3165 62.4186 19.7004C61.2884 24.7198 63.0275 29.4723 66.5878 31.9023C66.9379 32.1412 67.4085 32.0757 67.6813 31.7584C68.0993 31.2722 68.4804 30.7581 68.8265 30.2232C69.2165 31.3151 69.5453 32.4335 69.8096 33.5674C67.4987 36.5203 66.598 40.2383 67.7035 43.6467C67.8324 44.0446 68.2404 44.2865 68.6561 44.202C69.2653 44.0776 69.8627 43.9101 70.4464 43.7081C70.3245 44.8915 70.1327 46.0669 69.8762 47.2207C66.4121 48.5615 63.6281 51.3165 62.8451 54.9466C62.7563 55.3585 62.9912 55.7715 63.3908 55.9055C64.2733 56.2013 65.1818 56.4073 66.1061 56.5248C65.4059 57.6657 64.6288 58.7631 63.7856 59.8034C58.7351 58.5318 53.8945 60.2264 51.4027 63.7505C51.1593 64.0947 51.2138 64.5669 51.529 64.8467C52.5994 65.7973 53.8175 66.5755 55.1176 67.1621C45.7691 72.4811 34.2309 72.4806 24.8832 67.1621C26.183 66.5755 27.4014 65.7973 28.4716 64.8467C28.7865 64.5671 28.8409 64.0955 28.5983 63.7514C25.9284 59.9657 20.9189 58.6199 16.2154 59.8037C15.3721 58.7634 14.595 57.666 13.8945 56.5248C14.8187 56.4075 15.7273 56.2015 16.6097 55.9055C17.0093 55.7715 17.2443 55.3585 17.1554 54.9466C16.37 51.3067 13.5806 48.5579 10.124 47.2204C9.86736 46.0669 9.67576 44.8916 9.55381 43.7077C10.1376 43.9101 10.7351 44.0776 11.3441 44.2022C11.7595 44.2864 12.1675 44.0458 12.2969 43.6468C13.4187 40.188 12.4711 36.4862 10.1912 33.5669C10.4553 32.4331 10.784 31.3149 11.1739 30.2232C11.5199 30.7581 11.9011 31.2724 12.3192 31.7585C12.5924 32.0764 13.0632 32.1411 13.4128 31.9025C16.9832 29.4655 18.708 24.7036 17.5827 19.6999C18.87 18.316 20.29 17.047 21.8133 15.9199C28.444 16.8561 34.6044 10.8613 35.1048 3.54872C35.1335 3.12827 34.8417 2.75333 34.427 2.67821C33.8682 2.57694 33.2937 2.52565 32.7192 2.52565C26.7888 2.52565 21.4499 7.88754 20.8087 14.6051C19.4713 15.5966 18.2091 16.6914 17.0406 17.8743C16.4587 16.3066 15.6027 14.8318 14.4977 13.5474C14.2226 13.2278 13.7515 13.1662 13.4037 13.404C8.86597 16.5063 7.71532 22.9222 10.1343 28.313C9.63191 29.5396 9.20269 30.8048 8.85439 32.0939C6.95716 30.2872 4.53575 29.0067 1.91727 28.4716C1.50476 28.3873 1.09424 28.6264 0.964518 29.0272C-0.747383 34.3138 2.35393 40.2346 7.82933 42.9794C7.92199 44.2165 8.08431 45.4494 8.31712 46.6629C5.81794 46.076 3.11589 46.1684 0.564423 47.0242C0.164825 47.1584 -0.070135 47.5712 0.0187197 47.9832C1.13577 53.1604 6.32228 56.6238 12.0379 56.6405C12.7804 57.9268 13.6146 59.1657 14.5283 60.34C12.9607 60.9487 11.4922 61.8331 10.2287 62.9556C9.91386 63.2353 9.85942 63.7068 10.102 64.051C12.7215 67.7649 17.8317 69.3239 22.8843 67.8944C33.3277 74.4414 46.6651 74.4462 57.1156 67.8944C61.9293 69.256 67.1514 67.9454 69.8982 64.051C70.141 63.7068 70.0865 63.2351 69.7715 62.9556C68.5077 61.8331 67.0392 60.9484 65.472 60.3396C66.3857 59.1653 67.22 57.9267 67.9623 56.6407C73.6589 56.6241 78.8671 53.1793 79.9815 47.9822C80.0697 47.5704 79.8349 47.1582 79.436 47.0242ZM46.6279 4.20826C49.1852 3.99779 51.6817 5.03046 53.6218 6.8006C55.7351 8.72562 57.124 11.4378 57.5016 14.3349C52.54 14.7434 47.4327 10.3849 46.6279 4.20826ZM66.9131 30.0769C62.8223 26.6637 62.7549 19.8814 66.2709 15.2294C68.1443 16.793 69.2867 19.2113 69.4354 21.983C69.5888 24.8403 68.6755 27.7483 66.9131 30.0769ZM70.711 35.1287C72.3398 32.7751 74.8427 31.0343 77.6605 30.2715C78.7473 35.2095 75.0075 40.8012 69.078 42.4024C68.5538 40.0232 69.1315 37.4128 70.711 35.1287ZM26.3844 6.79895C28.4173 4.94408 30.9393 4.00689 33.3768 4.20727C32.5683 10.3619 27.4836 14.7439 22.5001 14.3337C22.8777 11.4388 24.2681 8.72678 26.3844 6.79895ZM13.7301 15.2297C17.29 19.9331 17.1309 26.7034 13.087 30.0769C9.36733 25.1621 9.87051 18.4556 13.7301 15.2297ZM3.97267 37.5496C2.39364 35.2636 1.816 32.6519 2.33937 30.2715C8.30388 31.8836 12.0019 37.5048 10.922 42.4024C8.10218 41.6398 5.59936 39.9006 3.97267 37.5496ZM1.83255 48.3694C7.73601 46.7914 13.7943 49.7176 15.3411 54.5603C9.46925 56.1309 3.38775 53.2382 1.83255 48.3694ZM11.9224 63.6969C16.644 60.01 23.39 60.173 26.7777 64.1054C24.4862 65.8946 15.3274 67.6497 11.9224 63.6969ZM53.2232 64.1059C56.6346 60.1528 63.3761 60.0254 68.0778 63.6969C64.6798 67.6416 57.9311 67.7819 53.2232 64.1059ZM64.6588 54.5603C66.2191 49.6757 72.3195 46.8033 78.1685 48.3696C76.5436 53.476 70.2452 56.0544 64.6588 54.5603Z" fill="#01396C"></path>
  <path d="M7.73436 66.1863C5.45342 66.1863 3.59773 68.042 3.59773 70.3229C3.59773 72.6038 5.45342 74.4595 7.73436 74.4595C10.0153 74.4595 11.871 72.6038 11.871 70.3229C11.871 68.042 10.0153 66.1863 7.73436 66.1863ZM7.73436 72.8049C6.3658 72.8049 5.25238 71.6913 5.25238 70.3229C5.25238 68.9542 6.3658 67.8409 7.73436 67.8409C9.10292 67.8409 10.2163 68.9542 10.2163 70.3229C10.2163 71.6913 9.10292 72.8049 7.73436 72.8049Z" fill="#01396C"></path>
  <path d="M71.8521 11.9965C75.0454 11.9965 77.6433 9.39853 77.6433 6.20522C77.6433 3.01191 75.0454 0.41394 71.8521 0.41394C68.6587 0.41394 66.0608 3.01191 66.0608 6.20522C66.0608 9.39836 68.6587 11.9965 71.8521 11.9965ZM71.8521 2.06843C74.133 2.06843 75.9887 3.92412 75.9887 6.20505C75.9887 8.48599 74.133 10.3417 71.8521 10.3417C69.5711 10.3417 67.7154 8.48599 67.7154 6.20505C67.7154 3.92412 69.5711 2.06843 71.8521 2.06843Z" fill="#01396C"></path>
  <path d="M75.9887 20.6831C76.6741 20.6831 77.2297 20.1275 77.2297 19.4422C77.2297 18.7568 76.6741 18.2012 75.9887 18.2012C75.3033 18.2012 74.7477 18.7568 74.7477 19.4422C74.7477 20.1275 75.3033 20.6831 75.9887 20.6831Z" fill="#01396C"></path>
  <path d="M60.2695 4.13664C60.9549 4.13664 61.5105 3.58103 61.5105 2.89565C61.5105 2.21027 60.9549 1.65466 60.2695 1.65466C59.5841 1.65466 59.0285 2.21027 59.0285 2.89565C59.0285 3.58103 59.5841 4.13664 60.2695 4.13664Z" fill="#01396C"></path>
  <path d="M19.7306 2.48198C20.416 2.48198 20.9716 1.92637 20.9716 1.24099C20.9716 0.555609 20.416 0 19.7306 0C19.0452 0 18.4896 0.555609 18.4896 1.24099C18.4896 1.92637 19.0452 2.48198 19.7306 2.48198Z" fill="#01396C"></path>
  <path d="M5.66605 15.7192C6.35143 15.7192 6.90704 15.1635 6.90704 14.4782C6.90704 13.7928 6.35143 13.2372 5.66605 13.2372C4.98067 13.2372 4.42506 13.7928 4.42506 14.4782C4.42506 15.1635 4.98067 15.7192 5.66605 15.7192Z" fill="#01396C"></path>
  <path d="M18.0759 72.8046C18.7613 72.8046 19.3169 72.249 19.3169 71.5636C19.3169 70.8782 18.7613 70.3226 18.0759 70.3226C17.3905 70.3226 16.8349 70.8782 16.8349 71.5636C16.8349 72.249 17.3905 72.8046 18.0759 72.8046Z" fill="#01396C"></path>
  <path d="M75.1614 62.8768C75.8467 62.8768 76.4023 62.3211 76.4023 61.6358C76.4023 60.9504 75.8467 60.3948 75.1614 60.3948C74.476 60.3948 73.9204 60.9504 73.9204 61.6358C73.9204 62.3211 74.476 62.8768 75.1614 62.8768Z" fill="#01396C"></path>
  <path d="M64.4061 72.8046C65.0915 72.8046 65.6471 72.249 65.6471 71.5636C65.6471 70.8782 65.0915 70.3226 64.4061 70.3226C63.7208 70.3226 63.1651 70.8782 63.1651 71.5636C63.1651 72.249 63.7208 72.8046 64.4061 72.8046Z" fill="#01396C"></path>
  <path d="M17.6623 38.8846C17.6623 51.2273 27.7114 61.2224 40 61.2224C52.2986 61.2224 62.3378 51.216 62.3378 38.8846C62.3378 26.5674 52.3171 16.5466 40 16.5466C27.683 16.5466 17.6623 26.5674 17.6623 38.8846ZM40 18.2013C51.4047 18.2013 60.6832 27.4797 60.6832 38.8846C60.6832 42.8212 59.5772 46.5041 57.6605 49.6398H49.9279C49.4709 49.6398 49.1006 50.0101 49.1006 50.4671C49.1006 50.924 49.4709 51.2945 49.9279 51.2945H56.536C48.2382 62.3235 31.7614 62.3229 23.464 51.2945H30.0721C30.529 51.2945 30.8995 50.924 30.8995 50.4671C30.8995 50.0101 30.529 49.6398 30.0721 49.6398H22.3396C20.4227 46.5041 19.3169 42.8212 19.3169 38.8846C19.3169 27.4797 28.5954 18.2013 40 18.2013Z" fill="#01396C"></path>
</svg>
