<?xml version="1.0" encoding="UTF-8"?>
<svg xmlns="http://www.w3.org/2000/svg" width="80" height="65" viewBox="0 0 80 65" fill="none">
  <path d="M21.8935 37.5722L21.8935 37.5722C26.7307 32.7329 33.1589 30.0695 40.0022 30.0695C46.8433 30.0695 53.2736 32.7329 58.1108 37.5722L58.1108 37.5722C58.7925 38.2539 58.7925 39.3587 58.1108 40.0403C57.4292 40.722 56.3244 40.722 55.6427 40.0403C51.4644 35.862 45.9076 33.5606 40.0011 33.5606C34.0934 33.5606 28.5377 35.8631 24.3615 40.0404L24.3612 40.0407C24.0211 40.3816 23.5752 40.5518 23.1275 40.5518C22.6801 40.5518 22.235 40.3818 21.8935 40.0403L21.8933 40.0401C21.212 39.3597 21.2118 38.254 21.8935 37.5722ZM11.5348 27.2157L11.5349 27.2157C19.1387 19.6097 29.2475 15.423 40.0011 15.423C50.7535 15.423 60.8624 19.6097 68.4651 27.2157L68.4652 27.2157C69.1469 27.8975 69.1466 29.0033 68.4654 29.6837L68.4652 29.6838C68.1237 30.0253 67.6785 30.1953 67.2311 30.1953C66.7837 30.1953 66.3386 30.0253 65.9971 29.6839C59.0532 22.7388 49.82 18.9141 40.0011 18.9141C30.1811 18.9141 20.9469 22.7399 14.0029 29.6838C13.3213 30.3655 12.2165 30.3655 11.5348 29.6838C10.8532 29.0022 10.8532 27.8974 11.5348 27.2157ZM0.911216 16.5921L0.911231 16.5921C11.3525 6.14974 25.2332 0.401065 39.9989 0.4C54.7657 0.4 68.6464 6.14972 79.0888 16.5921C79.7704 17.2737 79.7704 18.3786 79.0888 19.0602C78.7473 19.4017 78.3022 19.5717 77.8547 19.5717C77.4073 19.5717 76.9622 19.4017 76.6207 19.0602C66.8393 9.27881 53.8321 3.89107 39.9989 3.89107C26.1668 3.89107 13.1607 9.27882 3.37932 19.0602C2.6977 19.7418 1.59284 19.7418 0.911216 19.0602C0.229595 18.3786 0.229595 17.2737 0.911216 16.5921ZM45.3884 55.0739V55.0737C45.3884 52.1087 42.9779 49.6982 40.0129 49.6982C37.0488 49.6982 34.6385 52.1087 34.6385 55.0737C34.6385 58.0377 37.0489 60.4481 40.0129 60.4481C42.9769 60.4481 45.3872 58.0377 45.3884 55.0739ZM31.1474 55.0748C31.1474 50.1861 35.1243 46.2082 40.0129 46.2082C44.9005 46.2082 48.8794 50.1861 48.8794 55.0748C48.8794 59.9634 44.9016 63.9403 40.0129 63.9403C35.1242 63.9403 31.1474 59.9635 31.1474 55.0748Z" fill="#01396C" stroke="white" stroke-width="0.8"></path>
</svg>
