<?xml version="1.0" encoding="UTF-8"?>
<svg xmlns="http://www.w3.org/2000/svg" width="54" height="75" viewBox="0 0 54 75" fill="none">
  <path d="M46.0239 13.1927C45.9969 13.1927 45.9713 13.1914 45.9444 13.1876C45.6506 13.1504 45.3543 13.1247 45.0515 13.1247H3.89839C1.74972 13.1247 0 11.3763 0 9.22632V8.79274C0 6.86727 1.43801 5.20863 3.34423 4.93411L37.1419 0.0838865C39.533 -0.257335 41.96 0.452047 43.788 2.03629C45.6172 3.62053 46.6653 5.91673 46.6653 8.33735V12.5513C46.6653 12.736 46.5857 12.9105 46.4485 13.0324C46.3317 13.1363 46.1791 13.1927 46.0239 13.1927ZM38.3284 1.28201C37.9949 1.28201 37.6601 1.30638 37.3253 1.35385L3.52639 6.20407C2.24745 6.38751 1.28279 7.49969 1.28279 8.79274V9.22632C1.28279 10.6682 2.45654 11.8419 3.89839 11.8419H45.0515C45.1631 11.8419 45.2735 11.8445 45.3838 11.8496V8.33735C45.3838 6.29002 44.4974 4.34659 42.9503 3.00608C41.6573 1.8862 40.0153 1.28201 38.3284 1.28201Z" fill="#01396C"></path>
  <path d="M45.0515 75.0001H3.89839C1.74972 75.0001 0 73.2516 0 71.1017V9.22636C0 8.87231 0.287345 8.58496 0.641394 8.58496C0.995444 8.58496 1.28279 8.87231 1.28279 9.22636C1.28279 10.6682 2.45654 11.842 3.89839 11.842H45.0515C49.649 11.842 53.3897 15.5826 53.3897 20.1801V66.6619C53.3897 71.2594 49.649 75.0001 45.0515 75.0001ZM1.28279 12.1152V71.1029C1.28279 72.5448 2.45654 73.7186 3.89839 73.7186H45.0515C48.9409 73.7186 52.1069 70.5539 52.1069 66.6632V20.1801C52.1069 16.2894 48.9409 13.1248 45.0515 13.1248H3.89839C2.89269 13.1248 1.97549 12.7412 1.28279 12.1152Z" fill="#01396C"></path>
  <path d="M26.6952 55.464C20.0568 55.464 14.6562 50.0634 14.6562 43.4237C14.6562 36.7853 20.0568 31.3848 26.6952 31.3848C33.3349 31.3848 38.7355 36.7853 38.7355 43.4237C38.7355 50.0634 33.3349 55.464 26.6952 55.464ZM26.6952 32.6676C20.7636 32.6676 15.939 37.4934 15.939 43.4237C15.939 49.3553 20.7649 54.1812 26.6952 54.1812C32.6268 54.1812 37.4527 49.3553 37.4527 43.4237C37.4527 37.4934 32.6268 32.6676 26.6952 32.6676Z" fill="#01396C"></path>
  <path d="M26.6952 39.7909C23.3676 39.7909 20.2684 38.4542 17.9671 36.0297C17.7323 35.7822 17.7323 35.3935 17.9671 35.1472C20.2684 32.7214 23.3676 31.3848 26.6952 31.3848C30.0227 31.3848 33.1232 32.7214 35.4233 35.1472C35.6593 35.3948 35.6593 35.7834 35.4233 36.0297C33.1219 38.4555 30.0227 39.7909 26.6952 39.7909ZM19.3409 35.5885C21.3447 37.4767 23.932 38.5081 26.6952 38.5081C29.4583 38.5081 32.047 37.4754 34.0494 35.5885C32.047 33.7002 29.4583 32.6676 26.6952 32.6676C23.932 32.6676 21.3434 33.7002 19.3409 35.5885Z" fill="#01396C"></path>
  <path d="M26.6951 55.4637C23.7755 55.4637 20.9521 54.3951 18.7495 52.453C18.611 52.3311 18.5327 52.1566 18.5327 51.9719C18.5327 51.7872 18.6122 51.6127 18.7495 51.4909C20.9533 49.55 23.7755 48.4814 26.6951 48.4814C29.6147 48.4814 32.4369 49.55 34.6394 51.4909C34.7779 51.6127 34.8575 51.7885 34.8575 51.9719C34.8575 52.1554 34.7779 52.3311 34.6394 52.453C32.4369 54.3951 29.6147 55.4637 26.6951 55.4637ZM20.1837 51.9719C22.0553 53.4009 24.3399 54.1809 26.6951 54.1809C29.0503 54.1809 31.3349 53.4022 33.2053 51.9719C31.3337 50.5429 29.0503 49.7642 26.6951 49.7642C24.3399 49.7642 22.0553 50.5442 20.1837 51.9719Z" fill="#01396C"></path>
  <path d="M26.6948 55.464C23.1402 55.464 20.354 50.175 20.354 43.4237C20.354 36.6724 23.1389 31.3848 26.6948 31.3848C30.2507 31.3848 33.0344 36.6737 33.0344 43.4237C33.0344 50.175 30.2494 55.464 26.6948 55.464ZM26.6948 32.6676C23.9535 32.6676 21.6368 37.5935 21.6368 43.4237C21.6368 49.254 23.9535 54.1812 26.6948 54.1812C29.4361 54.1812 31.7516 49.2553 31.7516 43.4237C31.7516 37.5922 29.4361 32.6676 26.6948 32.6676Z" fill="#01396C"></path>
  <path d="M38.0941 44.065H15.2976C14.9436 44.065 14.6562 43.7777 14.6562 43.4236C14.6562 43.0696 14.9436 42.7822 15.2976 42.7822H38.0941C38.4481 42.7822 38.7355 43.0696 38.7355 43.4236C38.7355 43.7777 38.4481 44.065 38.0941 44.065Z" fill="#01396C"></path>
  <path d="M26.6951 55.464C26.3411 55.464 26.0537 55.1766 26.0537 54.8226V32.0262C26.0537 31.6721 26.3411 31.3848 26.6951 31.3848C27.0492 31.3848 27.3365 31.6721 27.3365 32.0262V54.8226C27.3365 55.1766 27.0492 55.464 26.6951 55.464Z" fill="#01396C"></path>
  <path d="M41.3495 60.3453H12.0403C11.6863 60.3453 11.3989 60.0579 11.3989 59.7039C11.3989 59.3498 11.6863 59.0625 12.0403 59.0625H41.3495C41.7035 59.0625 41.9909 59.3498 41.9909 59.7039C41.9909 60.0579 41.7035 60.3453 41.3495 60.3453Z" fill="#01396C"></path>
  <path d="M41.3495 66.858H12.0403C11.6863 66.858 11.3989 66.5706 11.3989 66.2166C11.3989 65.8625 11.6863 65.5752 12.0403 65.5752H41.3495C41.7035 65.5752 41.9909 65.8625 41.9909 66.2166C41.9909 66.5706 41.7035 66.858 41.3495 66.858Z" fill="#01396C"></path>
  <path d="M37.5986 27.5366H15.7912C13.6695 27.5366 11.9429 25.8099 11.9429 23.6882C11.9429 21.5665 13.6695 19.8398 15.7912 19.8398H37.5986C39.7204 19.8398 41.447 21.5665 41.447 23.6882C41.447 25.8099 39.7204 27.5366 37.5986 27.5366ZM15.7912 21.1226C14.3763 21.1226 13.2257 22.2733 13.2257 23.6882C13.2257 25.1031 14.3763 26.2538 15.7912 26.2538H37.5986C39.0136 26.2538 40.1642 25.1031 40.1642 23.6882C40.1642 22.2733 39.0136 21.1226 37.5986 21.1226H15.7912Z" fill="#01396C"></path>
</svg>
