<?xml version="1.0" encoding="UTF-8"?>
<svg xmlns="http://www.w3.org/2000/svg" width="32" height="75" viewBox="0 0 32 75" fill="none">
  <path d="M21.875 75C16.7056 75 12.5 70.7944 12.5 65.625V42.1875H9.375C4.20563 42.1875 0 37.9819 0 32.8125C0 27.6431 4.20563 23.4375 9.375 23.4375H21.875C27.0444 23.4375 31.25 27.6431 31.25 32.8125V65.625C31.25 70.7944 27.0444 75 21.875 75ZM9.375 25C5.06719 25 1.5625 28.5047 1.5625 32.8125C1.5625 37.1203 5.06719 40.625 9.375 40.625H13.2812C13.7127 40.625 14.0625 40.9747 14.0625 41.4062V65.625C14.0625 69.9328 17.5672 73.4375 21.875 73.4375C26.1828 73.4375 29.6875 69.9328 29.6875 65.625V32.8125C29.6875 28.5047 26.1828 25 21.875 25H9.375Z" fill="#01396C"></path>
  <path d="M18.75 18.75C13.5806 18.75 9.375 14.5444 9.375 9.375C9.375 4.20563 13.5806 0 18.75 0C23.9194 0 28.125 4.20563 28.125 9.375C28.125 14.5444 23.9194 18.75 18.75 18.75ZM18.75 1.5625C14.4422 1.5625 10.9375 5.06719 10.9375 9.375C10.9375 13.6828 14.4422 17.1875 18.75 17.1875C23.0578 17.1875 26.5625 13.6828 26.5625 9.375C26.5625 5.06719 23.0578 1.5625 18.75 1.5625Z" fill="#01396C"></path>
</svg>
