<svg width="30" height="28" viewBox="0 0 30 28" fill="none" xmlns="http://www.w3.org/2000/svg">
<path d="M26.6299 1.05957C27.1332 0.380337 28.0842 0.199566 28.7939 0.640625L28.9326 0.737305L28.9404 0.743164C29.6196 1.24658 29.8006 2.19753 29.3594 2.90723L29.2627 3.0459L29.2549 3.05566L12.1064 26.6094C11.8026 26.9925 11.373 27.2262 10.9346 27.252L10.8525 27.2568L10.7969 27.2842H10.791C10.358 27.2841 9.9611 27.1222 9.67285 26.834H9.67188L0.93457 17.8291L0.926758 17.8203L0.917969 17.8125L0.800781 17.6934C0.288034 17.1135 0.261325 16.2416 0.754883 15.6123L0.869141 15.4814L0.875 15.4746C1.48691 14.8099 2.52969 14.7768 3.20605 15.4258L3.22754 15.4463L3.25098 15.4629L9.64844 20.0264C10.1956 20.4976 11.0058 20.3863 11.4355 19.8262L11.4365 19.8271L26.6191 1.07324L26.625 1.06641L26.6299 1.05957Z" fill="#01396C" stroke="white" stroke-width="0.8"/>
</svg>
