<svg width="16" height="16" viewBox="0 0 16 16" fill="none" xmlns="http://www.w3.org/2000/svg">
<path d="M15.3124 9.80109e-09H9.84304C9.75278 5.99717e-09 9.66341 0.0177763 9.58003 0.0523151C9.49664 0.0868539 9.42088 0.137478 9.35706 0.201297C9.29324 0.265117 9.24262 0.340882 9.20808 0.424266C9.17354 0.50765 9.15576 0.59702 9.15576 0.687274C9.15576 0.777529 9.17354 0.866899 9.20808 0.950283C9.24262 1.03367 9.29324 1.10943 9.35706 1.17325C9.42088 1.23707 9.49664 1.28769 9.58003 1.32223C9.66341 1.35677 9.75278 1.37455 9.84304 1.37455H13.6553L9.3707 5.65911C9.77594 5.89017 10.1103 6.22766 10.3375 6.63504L14.6251 2.34742V6.15681C14.6251 6.33909 14.6975 6.5139 14.8264 6.64279C14.9553 6.77168 15.1301 6.84409 15.3124 6.84409C15.4946 6.84409 15.6694 6.77168 15.7983 6.64279C15.9272 6.5139 15.9996 6.33909 15.9996 6.15681V0.687272C15.9996 0.597013 15.9819 0.507637 15.9473 0.424246C15.9128 0.340855 15.8622 0.265085 15.7984 0.201263C15.7345 0.137441 15.6588 0.0868171 15.5754 0.0522839C15.492 0.0177507 15.4026 -1.52337e-05 15.3124 9.80109e-09Z" fill="white"/>
<path d="M6.15659 14.6258H2.34723L6.66749 10.3055C6.46581 10.1905 6.27952 10.0504 6.11308 9.88858C5.94849 9.72509 5.80671 9.54015 5.69156 9.33875L1.37455 13.6558V9.84352C1.37455 9.75327 1.35677 9.6639 1.32223 9.58052C1.28769 9.49713 1.23707 9.42137 1.17325 9.35755C1.10943 9.29373 1.03367 9.24311 0.950283 9.20857C0.866899 9.17403 0.777529 9.15625 0.687274 9.15625C0.59702 9.15625 0.50765 9.17403 0.424266 9.20857C0.340882 9.24311 0.265117 9.29373 0.201297 9.35755C0.137478 9.42137 0.0868547 9.49713 0.052316 9.58052C0.0177772 9.6639 5.61667e-09 9.75327 9.4206e-09 9.84352V15.3131C-1.49353e-05 15.4033 0.0177512 15.4927 0.0522847 15.5761C0.0868182 15.6595 0.137442 15.7353 0.201265 15.7991C0.265087 15.8629 0.340857 15.9135 0.424248 15.9481C0.507638 15.9826 0.597016 16.0004 0.687274 16.0003H6.15659C6.33887 16.0003 6.51368 15.9279 6.64257 15.799C6.77146 15.6702 6.84387 15.4953 6.84387 15.3131C6.84387 15.1308 6.77146 14.956 6.64257 14.8271C6.51368 14.6982 6.33887 14.6258 6.15659 14.6258Z" fill="white"/>
<path d="M6.15659 5.2079e-06H0.687274C0.597015 -9.73677e-06 0.507638 0.0177564 0.424248 0.0522899C0.340857 0.0868234 0.265087 0.137447 0.201265 0.20127C0.137442 0.265092 0.0868182 0.340862 0.0522847 0.424253C0.0177512 0.507644 -1.49353e-05 0.597021 9.4206e-09 0.68728V6.15682C9.42059e-09 6.33909 0.0724085 6.51391 0.201297 6.6428C0.330186 6.77168 0.504997 6.84409 0.687274 6.84409C0.86955 6.84409 1.04436 6.77168 1.17325 6.6428C1.30214 6.51391 1.37455 6.33909 1.37455 6.15682V2.3455L1.3755 2.34645L5.67324 6.64419C5.90206 6.23835 6.23396 5.90012 6.63541 5.66368L2.34628 1.37455H6.15659C6.33887 1.37455 6.51368 1.30214 6.64257 1.17325C6.77145 1.04436 6.84386 0.869551 6.84386 0.687274C6.84386 0.504998 6.77145 0.330187 6.64257 0.201298C6.51368 0.0724094 6.33887 5.21558e-06 6.15659 5.2079e-06Z" fill="white"/>
<path d="M15.3124 9.15625C15.2221 9.15624 15.1327 9.174 15.0493 9.20854C14.9659 9.24307 14.8902 9.29369 14.8263 9.35751C14.7625 9.42134 14.7119 9.49711 14.6774 9.5805C14.6428 9.66389 14.6251 9.75327 14.6251 9.84352V13.6538L10.3191 9.34793C10.2035 9.54881 10.06 9.73237 9.89304 9.89317C9.72792 10.0578 9.54147 10.1996 9.33865 10.3147L13.6497 14.6258H9.84304C9.66076 14.6258 9.48595 14.6982 9.35706 14.8271C9.22817 14.956 9.15576 15.1308 9.15576 15.3131C9.15576 15.4953 9.22817 15.6702 9.35706 15.799C9.48595 15.9279 9.66076 16.0003 9.84304 16.0003H15.3124C15.4026 16.0004 15.492 15.9826 15.5754 15.9481C15.6588 15.9135 15.7345 15.8629 15.7984 15.7991C15.8622 15.7353 15.9128 15.6595 15.9473 15.5761C15.9819 15.4927 15.9996 15.4033 15.9996 15.3131V9.84352C15.9996 9.75326 15.9819 9.66389 15.9473 9.5805C15.9128 9.49711 15.8622 9.42133 15.7984 9.35751C15.7345 9.29369 15.6588 9.24307 15.5754 9.20853C15.492 9.174 15.4026 9.15624 15.3124 9.15625Z" fill="white"/>
<path d="M8.62374 7.37784C8.48436 7.23288 8.29718 7.14335 8.09685 7.12582C8.06696 7.11803 8.03604 7.11495 8.00521 7.11668C7.97135 7.11517 7.93745 7.11825 7.90442 7.12582C7.70606 7.14782 7.52225 7.24053 7.38667 7.38699C7.25788 7.51852 7.17717 7.68962 7.15758 7.87266C7.14978 7.90722 7.1467 7.94267 7.14841 7.97806C7.14771 8.03207 7.15387 8.08595 7.16672 8.13841C7.19866 8.31114 7.28353 8.46966 7.40957 8.59201C7.52882 8.70886 7.6805 8.78709 7.84485 8.81651C7.89731 8.82939 7.95119 8.83556 8.0052 8.83486C8.05441 8.83504 8.10351 8.83044 8.15182 8.8211C8.32635 8.79 8.48714 8.70612 8.61249 8.58077C8.73785 8.45541 8.82173 8.29462 8.85283 8.1201C8.86216 8.07333 8.86677 8.02575 8.86658 7.97806C8.86832 7.94722 8.86522 7.9163 8.85741 7.88642C8.83936 7.69532 8.75697 7.51602 8.62374 7.37784Z" fill="white"/>
</svg>
