<svg width="20" height="20" viewBox="0 0 20 20" fill="none" xmlns="http://www.w3.org/2000/svg">
<path d="M16.8037 10.4997C16.0349 10.4997 15.242 10.3999 14.4299 10.2003C13.9524 10.0831 13.6187 9.65983 13.6187 9.17072V7.0788C13.6187 6.89741 13.4978 6.73472 13.3249 6.68298C12.2145 6.35095 11.0959 6.18244 10.0002 6.18244C8.90447 6.18244 7.78589 6.35095 6.67562 6.68298C6.50254 6.73472 6.38171 6.89741 6.38171 7.0788V9.17072C6.38171 9.65963 6.04812 10.0831 5.57044 10.2003C3.91392 10.6075 2.33698 10.599 0.88294 10.1758C0.508522 10.0681 0.22002 9.74876 0.149168 9.3623L0.12787 9.23742C-0.238652 6.99839 0.883563 4.78928 2.92053 3.74062C7.44575 1.41058 12.1691 1.41993 16.9594 3.76805C19.0537 4.79468 20.2457 7.07839 19.8582 9.32199L19.8519 9.35793C19.7804 9.74876 19.4919 10.0681 19.1161 10.1762C18.3757 10.3918 17.6027 10.4997 16.8037 10.4997ZM10.0002 5.33138C11.1786 5.33138 12.3792 5.51173 13.5687 5.86766C14.0992 6.02619 14.4697 6.52424 14.4697 7.0788V9.17072C14.4697 9.26672 14.5368 9.35024 14.6328 9.37372C16.1422 9.74502 17.5708 9.73983 18.8795 9.35876C18.9487 9.33882 19.001 9.28022 19.0141 9.20895L19.0196 9.17716C19.3431 7.30362 18.3419 5.3935 16.5848 4.53226C12.0494 2.30902 7.5832 2.29759 3.31011 4.49735C1.60227 5.37647 0.661032 7.22633 0.967818 9.10008L0.98683 9.21166C0.9994 9.28022 1.05166 9.33882 1.1195 9.35835C2.42944 9.73962 3.85813 9.74482 5.36723 9.37372H5.36754C5.46354 9.35024 5.53065 9.26672 5.53065 9.17072V7.0788C5.53065 6.52424 5.90122 6.02619 6.43179 5.86766C7.62122 5.51173 8.82177 5.33138 10.0002 5.33138Z" fill="white"/>
<path d="M18.5106 18.996H1.48936C0.668114 18.996 0 18.3278 0 17.5067V15.1556C0 14.1575 0.581678 13.2374 1.48178 12.8115L7.01806 10.1841L7.07935 9.01638C7.1046 8.4693 7.55672 8.03857 8.10848 8.03857C8.37278 8.03857 8.6245 8.13872 8.81732 8.32053C8.85347 8.35523 8.95082 8.44852 9.51307 9.31517H10.4869C11.0492 8.44873 11.1463 8.35544 11.1797 8.32323C11.3755 8.13872 11.6272 8.03857 11.8915 8.03857C12.4433 8.03857 12.8954 8.4693 12.9209 9.01888L12.9819 10.1841L18.5186 12.8117C19.4183 13.2374 20 14.1575 20 15.1556V17.5067C20 18.3278 19.3319 18.996 18.5106 18.996ZM8.10848 8.88964C8.01238 8.88964 7.93374 8.96382 7.92938 9.05835L7.85468 10.4821C7.84658 10.6381 7.75339 10.7773 7.6122 10.8442L1.84622 13.5805C1.24148 13.8666 0.851064 14.4849 0.851064 15.1556V17.5067C0.851064 17.8586 1.13738 18.145 1.48936 18.145H18.5106C18.8626 18.145 19.1489 17.8586 19.1489 17.5067V15.1556C19.1489 14.4849 18.7585 13.8666 18.1542 13.5807L12.3878 10.8442C12.2466 10.7773 12.1534 10.6381 12.1453 10.4821L12.0708 9.06085C12.0663 8.96381 11.9876 8.88964 11.8915 8.88964C11.8458 8.88964 11.8002 8.90792 11.7663 8.93971C11.7068 9.00994 11.3575 9.53417 11.0766 9.97092C10.9983 10.0927 10.8634 10.1662 10.7187 10.1662H9.28129C9.13657 10.1662 9.00172 10.0927 8.92339 9.97092C8.64247 9.53417 8.2932 9.00994 8.21892 8.92496C8.1998 8.90792 8.15419 8.88964 8.10848 8.88964Z" fill="white"/>
<path d="M9.99975 17.0006C9.76475 17.0006 9.57422 16.8101 9.57422 16.5751V12.678C9.57422 12.443 9.76475 12.2524 9.99975 12.2524C10.2347 12.2524 10.4253 12.443 10.4253 12.678V16.5751C10.4253 16.8101 10.2347 17.0006 9.99975 17.0006Z" fill="white"/>
<path d="M12.784 15.0503H7.21655C6.98155 15.0503 6.79102 14.8597 6.79102 14.6248C6.79102 14.3898 6.98155 14.1992 7.21655 14.1992H12.784C13.019 14.1992 13.2095 14.3898 13.2095 14.6248C13.2095 14.8597 13.019 15.0503 12.784 15.0503Z" fill="white"/>
<path d="M11.7197 17.0006H8.27989C7.45864 17.0006 6.79053 16.3324 6.79053 15.5113V13.7418C6.79053 12.9207 7.45864 12.2524 8.27989 12.2524H11.7197C12.5409 12.2524 13.209 12.9207 13.209 13.7418V15.5113C13.209 16.3324 12.5409 17.0006 11.7197 17.0006ZM8.27989 13.1035C7.92791 13.1035 7.64159 13.3898 7.64159 13.7418V15.5113C7.64159 15.8632 7.92791 16.1495 8.27989 16.1495H11.7197C12.0717 16.1495 12.358 15.8632 12.358 15.5113V13.7418C12.358 13.3898 12.0717 13.1035 11.7197 13.1035H8.27989Z" fill="white"/>
</svg>
