<svg width="20" height="20" viewBox="0 0 20 20" fill="none" xmlns="http://www.w3.org/2000/svg">
<path d="M18.2564 14.4L17.0164 13.68C17.2564 13.4 17.5764 13.24 17.8964 13.12C18.0964 13.08 18.2564 12.84 18.1764 12.64C18.0964 12.44 17.8964 12.28 17.6964 12.36C17.1364 12.52 16.6564 12.84 16.2964 13.28L15.0564 12.56C15.4564 12.08 15.9764 11.68 16.6164 11.52C16.8164 11.48 16.9764 11.24 16.8964 11.04C16.8564 10.84 16.6164 10.68 16.4164 10.76C15.5364 11 14.8564 11.52 14.3364 12.16L12.4564 11.08C12.5764 10.76 12.6564 10.4 12.6564 10.04C12.6564 9.68 12.5764 9.32 12.4564 9L14.3364 7.92C14.8564 8.6 15.5764 9.12 16.4164 9.32C16.6164 9.36 16.8564 9.24 16.8964 9.04C16.9364 8.84 16.8164 8.6 16.6164 8.56C15.9764 8.4 15.4564 8.04 15.0564 7.52L16.2964 6.8C16.6564 7.24 17.1364 7.56 17.6964 7.72C17.8964 7.76 18.1364 7.64 18.1764 7.44C18.2164 7.24 18.0964 7 17.8964 6.96C17.5364 6.88 17.2564 6.68 17.0164 6.4L18.2564 5.68C18.4564 5.56 18.5364 5.32 18.4164 5.12C18.2964 4.92 18.0564 4.84 17.8564 4.96L16.6164 5.68C16.4964 5.36 16.4964 5 16.5764 4.64C16.6164 4.44 16.4964 4.2 16.2964 4.16C16.0964 4.12 15.8564 4.24 15.8164 4.44C15.6564 5 15.6964 5.6 15.8964 6.12L14.6564 6.84C14.4164 6.24 14.3764 5.6 14.5364 4.96C14.5764 4.76 14.4564 4.52 14.2564 4.48C14.0564 4.44 13.8164 4.56 13.7764 4.76C13.5364 5.6 13.6164 6.48 13.9764 7.24L12.0964 8.32C11.6164 7.6 10.8964 7.2 10.1364 7.12V5.12C10.9764 5.04 11.7764 4.68 12.3764 4.04C12.5364 3.88 12.5364 3.64 12.3764 3.48C12.2164 3.32 11.9764 3.32 11.8164 3.48C11.3364 3.96 10.7364 4.24 10.1364 4.32V2.88C10.6964 2.8 11.2164 2.52 11.6164 2.12C11.7764 1.96 11.7764 1.72 11.6164 1.56C11.4564 1.4 11.2164 1.4 11.0564 1.56C10.8164 1.8 10.4964 2 10.1364 2.08V0.4C10.1364 0.16 9.93638 0 9.73638 0C9.53638 0 9.33638 0.2 9.33638 0.4V2.04C8.97638 1.96 8.65638 1.8 8.41638 1.52C8.25638 1.36 8.01638 1.36 7.85638 1.52C7.69638 1.68 7.69638 1.92 7.85638 2.08C8.25638 2.48 8.77638 2.76 9.33638 2.84V4.24C8.73638 4.16 8.13638 3.88 7.65638 3.4C7.49638 3.24 7.25638 3.24 7.09638 3.4C6.93638 3.56 6.93638 3.8 7.09638 3.96C7.73638 4.6 8.53638 4.96 9.33638 5.04V7.04C8.61638 7.16 7.93638 7.52 7.45638 8.08L5.69638 7.08C6.05638 6.28 6.09638 5.44 5.89638 4.6C5.85638 4.4 5.61638 4.24 5.41638 4.32C5.21638 4.36 5.05638 4.6 5.13638 4.8C5.29638 5.44 5.25638 6.08 5.01638 6.68L3.77638 5.96C3.97638 5.44 4.01638 4.88 3.85638 4.28C3.81638 4.08 3.57638 3.92 3.37638 4C3.17638 4.04 3.01638 4.28 3.09638 4.48C3.17638 4.84 3.17638 5.2 3.05638 5.52L1.61638 4.8C1.41638 4.68 1.17638 4.76 1.05638 4.96C0.936382 5.16 1.01638 5.4 1.21638 5.52L2.65638 6.36C2.41638 6.6 2.13638 6.8 1.77638 6.92C1.57638 6.96 1.41638 7.2 1.49638 7.4C1.53638 7.64 1.77638 7.76 1.97638 7.68C2.53638 7.52 3.01638 7.2 3.37638 6.76L4.61638 7.48C4.21638 8 3.69638 8.36 3.05638 8.52C2.85638 8.56 2.69638 8.8 2.77638 9C2.81638 9.2 3.05638 9.36 3.25638 9.28C4.09638 9.04 4.81638 8.56 5.33638 7.88L7.05638 8.88C6.89638 9.2 6.81638 9.6 6.81638 10C6.81638 10.4 6.89638 10.8 7.05638 11.16L5.33638 12.16C4.85638 11.48 4.13638 10.96 3.25638 10.76C3.05638 10.72 2.81638 10.84 2.77638 11.04C2.73638 11.24 2.85638 11.48 3.05638 11.52C3.69638 11.68 4.25638 12.08 4.61638 12.56L3.37638 13.28C3.01638 12.84 2.53638 12.52 1.97638 12.36C1.77638 12.32 1.53638 12.44 1.49638 12.64C1.45638 12.84 1.57638 13.08 1.77638 13.12C2.13638 13.2 2.41638 13.4 2.65638 13.68L1.21638 14.52C1.01638 14.64 0.936382 14.88 1.05638 15.08C1.17638 15.28 1.41638 15.32 1.61638 15.24L3.05638 14.4C3.17638 14.72 3.17638 15.08 3.09638 15.44C3.05638 15.64 3.17638 15.88 3.37638 15.92C3.57638 15.96 3.81638 15.84 3.85638 15.64C4.01638 15.08 3.97638 14.52 3.77638 13.96L5.01638 13.24C5.25638 13.8 5.29638 14.48 5.13638 15.12C5.09638 15.32 5.21638 15.56 5.41638 15.6C5.61638 15.64 5.85638 15.52 5.89638 15.32C6.13638 14.44 6.05638 13.6 5.69638 12.84L7.45638 11.84C7.93638 12.4 8.61638 12.8 9.33638 12.92V15.12C8.49638 15.2 7.69638 15.6 7.09638 16.2C6.93638 16.36 6.93638 16.6 7.09638 16.76C7.25638 16.92 7.49638 16.92 7.65638 16.76C8.13638 16.28 8.69638 16 9.33638 15.92V17.32C8.77638 17.4 8.25638 17.68 7.85638 18.08C7.69638 18.24 7.69638 18.48 7.85638 18.64C8.01638 18.8 8.25638 18.8 8.41638 18.64C8.65638 18.4 8.97638 18.2 9.33638 18.12V19.6C9.33638 19.84 9.53638 20 9.73638 20C9.93638 20 10.1364 19.8 10.1364 19.6V18.16C10.4964 18.24 10.8164 18.4 11.0564 18.68C11.2164 18.84 11.4564 18.84 11.6164 18.68C11.7764 18.52 11.7764 18.28 11.6164 18.12C11.2164 17.72 10.6964 17.44 10.1364 17.36V15.96C10.7764 16.04 11.3764 16.32 11.8164 16.8C11.9764 16.96 12.2164 16.96 12.3764 16.8C12.5364 16.64 12.5364 16.4 12.3764 16.24C11.7764 15.64 10.9764 15.24 10.1364 15.16V12.96C10.8964 12.84 11.6164 12.44 12.0564 11.8L13.9364 12.88C13.6164 13.64 13.4964 14.52 13.7364 15.36C13.7764 15.6 14.0164 15.72 14.2164 15.64C14.4164 15.6 14.5764 15.36 14.4964 15.16C14.3364 14.52 14.3764 13.88 14.6164 13.28L15.8564 14C15.6564 14.52 15.6164 15.12 15.7764 15.68C15.8164 15.88 15.9764 16 16.1764 16C16.4564 16 16.6564 15.76 16.5764 15.48C16.4964 15.12 16.4964 14.76 16.6164 14.44L17.8564 15.16C18.0564 15.28 18.2964 15.2 18.4164 15C18.4964 14.76 18.4564 14.52 18.2564 14.4ZM9.73638 12.12C9.01638 12.12 8.29638 11.72 7.93638 11.08C7.73638 10.76 7.61638 10.4 7.61638 10C7.61638 9.6 7.73638 9.24 7.93638 8.92C8.33638 8.28 9.01638 7.88 9.73638 7.88C10.4964 7.88 11.2164 8.28 11.5764 8.96C11.7364 9.28 11.8564 9.64 11.8564 10C11.8564 10.36 11.7764 10.72 11.5764 11.04C11.2164 11.72 10.4964 12.12 9.73638 12.12Z" fill="white"/>
</svg>
