<svg width="20" height="20" viewBox="0 0 20 20" fill="none" xmlns="http://www.w3.org/2000/svg">
<path d="M16.1776 15.918H2.87253C2.75223 15.918 2.63686 15.8702 2.5518 15.7852C2.46673 15.7001 2.41895 15.5847 2.41895 15.4644V2.76413C2.41895 2.64383 2.46673 2.52846 2.5518 2.4434C2.63686 2.35834 2.75223 2.31055 2.87253 2.31055H16.1776C16.2979 2.31055 16.4133 2.35834 16.4983 2.4434C16.5834 2.52846 16.6312 2.64383 16.6312 2.76413V15.4644C16.6312 15.5847 16.5834 15.7001 16.4983 15.7852C16.4133 15.8702 16.2979 15.918 16.1776 15.918ZM3.32611 15.0109H15.724V3.21771H3.32611V15.0109Z" fill="white"/>
<path d="M9.52527 10.929C9.16643 10.929 8.81565 10.8225 8.51728 10.6232C8.21892 10.4238 7.98637 10.1405 7.84905 9.80894C7.71172 9.47741 7.67579 9.11261 7.7458 8.76066C7.81581 8.40872 7.9886 8.08544 8.24234 7.8317C8.49608 7.57796 8.81936 7.40516 9.17131 7.33516C9.52325 7.26515 9.88806 7.30108 10.2196 7.4384C10.5511 7.57572 10.8345 7.80827 11.0338 8.10664C11.2332 8.405 11.3396 8.75578 11.3396 9.11462C11.3396 9.59581 11.1484 10.0573 10.8082 10.3975C10.4679 10.7378 10.0065 10.929 9.52527 10.929ZM9.52527 8.20746C9.34585 8.20746 9.17046 8.26066 9.02127 8.36034C8.87209 8.46002 8.75582 8.6017 8.68716 8.76747C8.6185 8.93323 8.60053 9.11563 8.63553 9.2916C8.67054 9.46757 8.75694 9.62922 8.88381 9.75608C9.01068 9.88295 9.17232 9.96935 9.34829 10.0044C9.52426 10.0394 9.70666 10.0214 9.87242 9.95273C10.0382 9.88407 10.1799 9.7678 10.2795 9.61862C10.3792 9.46943 10.4324 9.29404 10.4324 9.11462C10.4324 8.87403 10.3369 8.64329 10.1667 8.47316C9.9966 8.30304 9.76586 8.20746 9.52527 8.20746Z" fill="white"/>
<path d="M9.52511 12.8366C9.29282 12.8381 9.06586 12.7669 8.87606 12.633C8.68626 12.499 8.54313 12.309 8.46676 12.0897C8.45665 12.0604 8.44044 12.0337 8.4192 12.0112C8.39797 11.9888 8.37218 11.9711 8.34358 11.9593C8.31497 11.9476 8.28419 11.9421 8.25329 11.9432C8.22239 11.9443 8.19208 11.952 8.16437 11.9657C7.95284 12.0729 7.71283 12.1105 7.47864 12.0732C7.24444 12.0358 7.02804 11.9254 6.86035 11.7577C6.69266 11.5901 6.58226 11.3737 6.54491 11.1395C6.50757 10.9053 6.5452 10.6653 6.65243 10.4537C6.66615 10.426 6.67381 10.3957 6.6749 10.3648C6.67599 10.3339 6.67049 10.3031 6.65876 10.2745C6.64703 10.2459 6.62935 10.2201 6.60688 10.1989C6.58441 10.1777 6.55767 10.1614 6.52845 10.1513C6.31063 10.0729 6.12232 9.92918 5.98921 9.73977C5.8561 9.55036 5.78467 9.32449 5.78467 9.09299C5.78467 8.86148 5.8561 8.63561 5.98921 8.4462C6.12232 8.25679 6.31063 8.11306 6.52845 8.03463C6.55767 8.02453 6.58441 8.00832 6.60688 7.98708C6.62935 7.96584 6.64703 7.94006 6.65876 7.91145C6.67049 7.88284 6.67599 7.85206 6.6749 7.82116C6.67381 7.79026 6.66615 7.75995 6.65243 7.73224C6.5452 7.52071 6.50757 7.2807 6.54491 7.04651C6.58226 6.81232 6.69266 6.59591 6.86035 6.42822C7.02804 6.26053 7.24444 6.15013 7.47864 6.11278C7.71283 6.07544 7.95284 6.11307 8.16437 6.2203C8.19208 6.23402 8.22239 6.24168 8.25329 6.24277C8.28419 6.24387 8.31497 6.23836 8.34358 6.22663C8.37218 6.2149 8.39797 6.19722 8.4192 6.17475C8.44044 6.15228 8.45665 6.12554 8.46676 6.09632C8.54519 5.8785 8.68892 5.69019 8.87833 5.55708C9.06774 5.42397 9.29361 5.35254 9.52511 5.35254C9.75662 5.35254 9.98249 5.42397 10.1719 5.55708C10.3613 5.69019 10.505 5.8785 10.5835 6.09632C10.5936 6.12554 10.6098 6.15228 10.631 6.17475C10.6523 6.19722 10.678 6.2149 10.7067 6.22663C10.7353 6.23836 10.766 6.24387 10.7969 6.24277C10.8278 6.24168 10.8582 6.23402 10.8859 6.2203C11.0974 6.11307 11.3374 6.07544 11.5716 6.11278C11.8058 6.15013 12.0222 6.26053 12.1899 6.42822C12.3576 6.59591 12.468 6.81232 12.5053 7.04651C12.5427 7.2807 12.505 7.52071 12.3978 7.73224C12.3841 7.75995 12.3764 7.79026 12.3753 7.82116C12.3742 7.85206 12.3797 7.88284 12.3915 7.91145C12.4032 7.94006 12.4209 7.96584 12.4434 7.98708C12.4658 8.00832 12.4926 8.02453 12.5218 8.03463C12.7396 8.11306 12.9279 8.25679 13.061 8.4462C13.1941 8.63561 13.2656 8.86148 13.2656 9.09299C13.2656 9.32449 13.1941 9.55036 13.061 9.73977C12.9279 9.92918 12.7396 10.0729 12.5218 10.1513C12.4926 10.1614 12.4658 10.1777 12.4434 10.1989C12.4209 10.2201 12.4032 10.2459 12.3915 10.2745C12.3797 10.3031 12.3742 10.3339 12.3753 10.3648C12.3764 10.3957 12.3841 10.426 12.3978 10.4537C12.505 10.6653 12.5427 10.9053 12.5053 11.1395C12.468 11.3737 12.3576 11.5901 12.1899 11.7577C12.0222 11.9254 11.8058 12.0358 11.5716 12.0732C11.3374 12.1105 11.0974 12.0729 10.8859 11.9657C10.8582 11.952 10.8278 11.9443 10.7969 11.9432C10.766 11.9421 10.7353 11.9476 10.7067 11.9593C10.678 11.9711 10.6523 11.9888 10.631 12.0112C10.6098 12.0337 10.5936 12.0604 10.5835 12.0897C10.5071 12.309 10.364 12.499 10.1742 12.633C9.98437 12.7669 9.75741 12.8381 9.52511 12.8366ZM8.26113 11.0373C8.49312 11.0371 8.71946 11.1088 8.909 11.2426C9.09854 11.3764 9.24195 11.5656 9.31949 11.7842C9.33496 11.8259 9.3628 11.8618 9.39929 11.8872C9.43578 11.9126 9.47916 11.9262 9.5236 11.9262C9.56805 11.9262 9.61143 11.9126 9.64791 11.8872C9.6844 11.8618 9.71225 11.8259 9.72771 11.7842C9.78017 11.6358 9.86327 11.5001 9.97161 11.3859C10.08 11.2717 10.2111 11.1816 10.3566 11.1214C10.502 11.0613 10.6585 11.0324 10.8159 11.0366C10.9732 11.0409 11.1279 11.0782 11.2699 11.1462C11.3118 11.1746 11.3623 11.1875 11.4127 11.1827C11.4631 11.178 11.5102 11.1558 11.546 11.12C11.5818 11.0842 11.604 11.037 11.6088 10.9866C11.6136 10.9362 11.6007 10.8857 11.5723 10.8438C11.5048 10.7018 11.4678 10.5471 11.4638 10.3899C11.4598 10.2327 11.4888 10.0764 11.5489 9.93106C11.609 9.78574 11.6989 9.65464 11.8129 9.54622C11.9268 9.4378 12.0622 9.35448 12.2103 9.30163C12.252 9.28617 12.2879 9.25832 12.3133 9.22183C12.3387 9.18534 12.3523 9.14197 12.3523 9.09752C12.3523 9.05308 12.3387 9.0097 12.3133 8.97321C12.2879 8.93672 12.252 8.90887 12.2103 8.89341C12.0619 8.84096 11.9262 8.75786 11.812 8.64951C11.6978 8.54117 11.6077 8.41001 11.5475 8.26455C11.4873 8.1191 11.4584 7.96261 11.4627 7.80525C11.467 7.6479 11.5043 7.49321 11.5723 7.35123C11.6007 7.30933 11.6136 7.25884 11.6088 7.20844C11.604 7.15804 11.5818 7.11089 11.546 7.07509C11.5102 7.03929 11.4631 7.01709 11.4127 7.0123C11.3623 7.00751 11.3118 7.02043 11.2699 7.04884C11.1278 7.11633 10.9732 7.15328 10.816 7.15731C10.6588 7.16134 10.5025 7.13235 10.3571 7.07223C10.2118 7.01211 10.0807 6.92218 9.9723 6.80825C9.86389 6.69432 9.78056 6.55893 9.72771 6.4108C9.71225 6.36914 9.6844 6.3332 9.64791 6.30782C9.61143 6.28245 9.56805 6.26885 9.5236 6.26885C9.47916 6.26885 9.43578 6.28245 9.39929 6.30782C9.3628 6.3332 9.33496 6.36914 9.31949 6.4108C9.26704 6.55922 9.18394 6.69493 9.07559 6.80912C8.96725 6.92332 8.83609 7.01343 8.69063 7.07361C8.54518 7.13379 8.38869 7.16268 8.23134 7.15841C8.07398 7.15415 7.91929 7.11681 7.77731 7.04884C7.73541 7.02043 7.68492 7.00751 7.63452 7.0123C7.58412 7.01709 7.53697 7.03929 7.50117 7.07509C7.46537 7.11089 7.44317 7.15804 7.43838 7.20844C7.43359 7.25884 7.44651 7.30933 7.47492 7.35123C7.54241 7.49328 7.57936 7.64791 7.58339 7.80513C7.58742 7.96234 7.55843 8.11866 7.49831 8.26398C7.43819 8.4093 7.34826 8.54041 7.23433 8.64882C7.1204 8.75724 6.98501 8.84056 6.83688 8.89341C6.79522 8.90887 6.75928 8.93672 6.7339 8.97321C6.70853 9.0097 6.69493 9.05308 6.69493 9.09752C6.69493 9.14197 6.70853 9.18534 6.7339 9.22183C6.75928 9.25832 6.79522 9.28617 6.83688 9.30163C6.9853 9.35409 7.12101 9.43719 7.2352 9.54553C7.3494 9.65387 7.43951 9.78503 7.49969 9.93049C7.55987 10.0759 7.58876 10.2324 7.5845 10.3898C7.58023 10.5471 7.5429 10.7018 7.47492 10.8438C7.44651 10.8857 7.43359 10.9362 7.43838 10.9866C7.44317 11.037 7.46537 11.0842 7.50117 11.12C7.53697 11.1558 7.58412 11.178 7.63452 11.1827C7.68492 11.1875 7.73541 11.1746 7.77731 11.1462C7.92872 11.0754 8.094 11.0393 8.26113 11.0404V11.0373Z" fill="white"/>
<path d="M16.707 5.03223H15.4974C15.2052 5.03223 14.9683 5.26915 14.9683 5.56141V6.61976C14.9683 6.91202 15.2052 7.14894 15.4974 7.14894H16.707C16.9993 7.14894 17.2362 6.91202 17.2362 6.61976V5.56141C17.2362 5.26915 16.9993 5.03223 16.707 5.03223Z" fill="white"/>
<path d="M16.707 11.0806H15.4974C15.2052 11.0806 14.9683 11.3175 14.9683 11.6097V12.6681C14.9683 12.9604 15.2052 13.1973 15.4974 13.1973H16.707C16.9993 13.1973 17.2362 12.9604 17.2362 12.6681V11.6097C17.2362 11.3175 16.9993 11.0806 16.707 11.0806Z" fill="white"/>
<path d="M15.1194 20H13.0027C12.8944 20.0015 12.7892 19.9642 12.706 19.8949C12.6228 19.8255 12.5671 19.7287 12.5491 19.622L12.3102 18.2249H6.4318L6.19896 19.622C6.18092 19.7287 6.12528 19.8255 6.04209 19.8949C5.9589 19.9642 5.85365 20.0015 5.74538 20H3.62866C3.52038 20.0015 3.41513 19.9642 3.33195 19.8949C3.24876 19.8255 3.19311 19.7287 3.17508 19.622L2.93619 18.2249H0.453582C0.333285 18.2249 0.217914 18.1771 0.132851 18.0921C0.0477879 18.007 0 17.8917 0 17.7714V0.453582C0 0.333285 0.0477879 0.217915 0.132851 0.132851C0.217914 0.0477882 0.333285 0 0.453582 0H18.5969C18.7172 0 18.8325 0.0477882 18.9176 0.132851C19.0027 0.217915 19.0505 0.333285 19.0505 0.453582V17.7744C19.0505 17.8947 19.0027 18.01 18.9176 18.0951C18.8325 18.1802 18.7172 18.228 18.5969 18.228H15.8058L15.573 19.622C15.555 19.7287 15.4993 19.8255 15.4161 19.8949C15.3329 19.9642 15.2277 20.0015 15.1194 20ZM13.3867 19.0928H14.7384L14.9682 17.6958C14.9861 17.59 15.0409 17.494 15.1228 17.4248C15.2047 17.3556 15.3085 17.3177 15.4158 17.3178H18.1372V0.907165H0.901117V17.3208H3.32022C3.42909 17.3177 3.53543 17.3539 3.61983 17.4227C3.70422 17.4916 3.76102 17.5885 3.77985 17.6958L4.01269 19.0928H5.36437L5.59418 17.6958C5.61206 17.59 5.66682 17.494 5.74875 17.4248C5.83068 17.3556 5.93447 17.3177 6.04172 17.3178H12.6943C12.8036 17.3148 12.9103 17.3514 12.9947 17.4209C13.0792 17.4903 13.1357 17.5879 13.1539 17.6958L13.3867 19.0928Z" fill="white"/>
</svg>
